<?xml version="1.0" standalone="no"?>
<!DOCTYPE svg PUBLIC "-//W3C//DTD SVG 20010904//EN"
 "http://www.w3.org/TR/2001/REC-SVG-20010904/DTD/svg10.dtd">
<svg version="1.0" xmlns="http://www.w3.org/2000/svg"
 width="512.000000pt" height="512.000000pt" viewBox="0 0 512.000000 512.000000"
 preserveAspectRatio="xMidYMid meet">
<metadata>
Created by potrace 1.14, written by Peter Selinger 2001-2017
</metadata>
<g transform="translate(0.000000,512.000000) scale(0.100000,-0.100000)"
fill="#000000" stroke="none">
<path d="M1146 4158 c3 -4 9 -8 15 -8 5 0 9 4 9 8 0 5 -7 9 -15 9 -8 0 -12 -4
-9 -9z"/>
<path d="M1206 4162 c-3 -5 1 -9 9 -9 8 0 12 4 9 9 -3 4 -7 8 -9 8 -2 0 -6 -4
-9 -8z"/>
<path d="M1330 4159 c0 -5 5 -7 10 -4 6 3 10 8 10 11 0 2 -4 4 -10 4 -5 0 -10
-5 -10 -11z"/>
<path d="M935 4141 c-3 -5 -2 -12 3 -15 5 -3 9 1 9 9 0 17 -3 19 -12 6z"/>
<path d="M1055 4141 c-3 -5 -2 -12 3 -15 5 -3 9 1 9 9 0 17 -3 19 -12 6z"/>
<path d="M870 4136 c0 -2 8 -10 18 -17 15 -13 16 -12 3 4 -13 16 -21 21 -21
13z"/>
<path d="M1199 4128 c15 -21 31 -23 31 -6 0 6 -3 8 -7 5 -3 -4 -13 -1 -22 6
-14 11 -14 10 -2 -5z"/>
<path d="M1273 4125 c0 -8 4 -12 9 -9 5 3 6 10 3 15 -9 13 -12 11 -12 -6z"/>
<path d="M820 4126 c0 -2 8 -10 18 -17 15 -13 16 -12 3 4 -13 16 -21 21 -21
13z"/>
<path d="M990 4118 c0 -6 3 -8 7 -5 3 4 13 1 22 -6 14 -11 14 -10 2 6 -15 20
-31 22 -31 5z"/>
<path d="M1090 4120 c0 -5 5 -10 11 -10 5 0 7 5 4 10 -3 6 -8 10 -11 10 -2 0
-4 -4 -4 -10z"/>
<path d="M1150 4114 c0 -9 -5 -12 -12 -8 -7 4 -8 3 -4 -4 9 -15 33 -5 33 13 0
8 -4 15 -9 15 -4 0 -8 -7 -8 -16z"/>
<path d="M1299 4113 c-13 -16 -12 -17 4 -4 9 7 17 15 17 17 0 8 -8 3 -21 -13z"/>
<path d="M1390 4123 c0 -6 8 -17 18 -24 16 -13 16 -13 2 6 -8 11 -16 22 -17
24 -2 2 -3 0 -3 -6z"/>
<path d="M1467 4119 c7 -7 15 -10 18 -7 3 3 -2 9 -12 12 -14 6 -15 5 -6 -5z"/>
<path d="M930 4106 c0 -2 7 -7 16 -10 8 -3 12 -2 9 4 -6 10 -25 14 -25 6z"/>
<path d="M1344 4102 c4 -3 14 -7 22 -8 9 -1 13 0 10 4 -4 3 -14 7 -22 8 -9 1
-13 0 -10 -4z"/>
<path d="M1435 4101 c-3 -5 -2 -12 3 -15 5 -3 9 1 9 9 0 17 -3 19 -12 6z"/>
<path d="M895 4089 c-4 -6 -5 -12 -2 -15 2 -3 7 2 10 11 7 17 1 20 -8 4z"/>
<path d="M974 4092 c3 -5 0 -13 -6 -15 -9 -4 -10 -6 -1 -6 17 -1 25 16 12 25
-7 4 -9 3 -5 -4z"/>
<path d="M1063 4082 c21 -23 22 -39 2 -22 -11 9 -15 9 -15 1 0 -7 -5 -9 -12
-5 -7 4 -10 4 -6 -1 4 -4 2 -17 -4 -28 -10 -19 -12 -19 -23 -4 -12 16 -13 16
-19 1 -5 -14 -9 -14 -22 -3 -13 10 -17 10 -25 -2 -8 -13 -13 -6 -10 16 1 6 -6
1 -14 -9 -8 -11 -15 -24 -15 -29 0 -4 -5 -5 -10 -2 -8 5 -7 11 0 20 7 8 10 22
7 32 -4 14 -5 14 -6 -4 -1 -25 -17 -38 -26 -22 -5 6 -15 -2 -27 -21 -21 -35
-37 -35 -18 -1 9 17 8 22 -5 27 -9 4 -19 4 -22 0 -4 -3 1 -6 10 -6 11 0 14 -5
11 -15 -5 -12 -9 -13 -20 -4 -8 7 -17 9 -21 5 -3 -3 0 -6 8 -6 12 0 11 -2 -1
-11 -12 -9 -12 -10 4 -5 14 5 17 2 12 -9 -3 -9 -2 -13 4 -10 6 3 10 2 10 -2 0
-5 -9 -14 -21 -21 -19 -12 -20 -11 -14 7 4 15 2 21 -9 21 -8 0 -18 -9 -21 -20
-4 -11 -11 -18 -16 -14 -5 3 -7 10 -4 15 4 5 1 9 -4 9 -14 0 -14 -13 1 -28 9
-9 9 -12 0 -12 -7 0 -15 7 -18 15 -10 24 -43 -20 -37 -48 4 -21 4 -21 -11 -3
-16 19 -53 15 -40 -5 4 -7 0 -10 -11 -7 -10 1 -20 9 -23 16 -2 7 2 11 8 10 7
-2 15 4 17 12 4 13 3 13 -6 0 -6 -8 -11 -11 -11 -5 0 5 -5 4 -11 -2 -9 -9 -6
-19 10 -42 13 -17 18 -31 13 -31 -14 0 -51 47 -44 56 4 4 1 4 -5 0 -17 -10
-17 -11 12 -41 14 -14 25 -25 23 -26 -31 -8 -39 -6 -33 9 5 13 2 13 -14 -2
-17 -15 -23 -16 -36 -6 -10 8 -15 9 -15 1 0 -6 5 -11 10 -11 6 0 10 -7 10 -15
0 -19 10 -19 38 1 12 8 22 11 22 5 0 -10 -18 -24 -35 -27 -5 -1 -19 -6 -29
-10 -14 -5 -17 -4 -12 4 12 20 -3 33 -25 22 -15 -9 -17 -15 -9 -30 8 -14 8
-20 0 -20 -6 0 -13 7 -16 15 -4 8 -11 15 -17 15 -5 0 -3 -8 6 -18 24 -26 21
-39 -3 -17 -11 10 -20 15 -20 11 0 -4 10 -17 23 -28 15 -14 17 -18 5 -14 -9 2
-19 -2 -22 -10 -3 -9 -9 -13 -14 -10 -4 2 -14 0 -22 -5 -12 -7 -10 -8 7 -6 12
2 26 6 29 10 10 10 44 9 44 -2 0 -5 -8 -8 -17 -7 -14 1 -17 -5 -15 -24 3 -24
3 -24 -11 -6 -16 21 -42 13 -33 -11 4 -11 1 -13 -14 -8 -12 4 -20 2 -20 -5 0
-6 4 -9 9 -6 16 10 21 -23 6 -38 -11 -11 -12 -16 -2 -20 6 -3 3 -4 -8 -3 -14
2 -19 9 -17 22 3 19 2 18 -12 -2 -9 -12 -13 -30 -10 -40 5 -15 2 -14 -14 4
-11 12 -22 19 -26 16 -6 -7 33 -38 48 -38 5 0 11 -6 14 -13 2 -7 -2 -10 -12
-6 -9 3 -16 1 -16 -6 0 -6 4 -9 8 -6 4 2 14 -4 20 -15 11 -17 10 -20 -5 -17
-10 2 -23 12 -30 23 -9 15 -12 16 -13 5 0 -9 6 -22 12 -29 11 -11 9 -12 -8 -7
-25 8 -53 -17 -33 -30 8 -4 9 -3 5 4 -4 7 -4 12 1 13 4 0 23 2 42 3 30 2 32 1
15 -11 -10 -7 -25 -11 -33 -8 -12 5 -12 3 0 -11 12 -15 11 -16 -11 -10 l-25 8
22 -16 c21 -15 22 -53 2 -40 -5 3 -7 10 -4 15 4 5 1 9 -4 9 -13 0 -14 -10 -3
-28 5 -7 15 -10 24 -7 9 4 15 0 15 -10 0 -9 -6 -14 -14 -11 -8 3 -11 2 -8 -3
3 -5 1 -12 -5 -16 -5 -3 -10 -1 -10 4 0 6 -5 11 -11 11 -8 0 -8 -4 1 -14 6 -8
18 -12 26 -9 8 3 14 0 14 -6 0 -6 -9 -11 -19 -11 -11 0 -23 -5 -27 -11 -4 -7
0 -9 12 -5 23 7 38 -3 42 -26 2 -13 -4 -16 -28 -13 l-31 4 23 -19 c20 -16 25
-17 34 -5 6 8 13 13 16 10 2 -3 5 2 5 10 0 8 -5 15 -10 15 -5 0 -4 6 2 14 8
10 9 16 1 21 -13 8 -13 25 1 25 5 0 8 -4 4 -9 -3 -5 -1 -12 4 -15 5 -4 8 1 7
10 -1 8 -9 20 -17 25 -12 7 -12 9 1 9 13 0 13 1 0 10 -13 9 -13 10 0 10 13 0
13 2 1 9 -8 5 -16 18 -17 28 -4 21 12 50 21 41 4 -4 3 -13 -1 -20 -12 -19 -14
-38 -3 -38 8 0 13 15 10 33 0 4 3 7 8 7 6 0 8 9 6 19 -3 15 1 18 13 14 11 -3
13 -2 6 4 -15 11 -14 41 2 47 8 3 11 12 7 22 -4 11 -2 15 4 11 6 -4 16 0 22 7
9 11 9 16 0 21 -8 6 -8 10 2 16 7 4 10 11 6 16 -5 4 -12 1 -16 -6 -5 -8 -11
-9 -15 -3 -7 12 22 25 36 15 7 -4 8 -1 3 7 -6 9 -4 11 5 5 9 -6 11 -4 5 5 -5
8 -4 11 3 6 7 -4 10 1 7 14 -2 11 0 18 5 15 6 -3 7 2 4 12 -4 13 -3 15 4 5 7
-11 10 -11 15 2 4 9 13 13 22 10 15 -6 22 -25 7 -23 -19 3 -33 -2 -27 -10 3
-5 1 -12 -5 -16 -5 -3 -10 -11 -10 -17 0 -6 7 -5 18 3 14 11 14 10 -2 -8 -15
-19 -16 -25 -6 -38 7 -9 8 -15 2 -15 -6 0 -12 6 -15 13 -2 6 -8 9 -12 5 -4 -3
-2 -14 3 -24 7 -13 3 -27 -19 -57 -27 -38 -30 -57 -8 -57 6 0 7 5 3 12 -5 7
-3 8 5 3 9 -5 10 -10 2 -18 -8 -8 -14 -8 -23 1 -21 21 -32 13 -13 -8 17 -18
17 -20 2 -14 -9 3 -17 10 -17 15 0 5 -4 9 -10 9 -16 0 -7 -24 15 -37 11 -7 16
-13 10 -14 -5 0 1 -5 15 -9 24 -8 24 -8 2 -9 -12 -1 -25 6 -28 14 -7 17 -34
21 -34 4 0 -5 6 -7 13 -3 6 4 8 3 4 -1 -4 -5 1 -14 12 -20 15 -7 18 -14 11
-25 -8 -13 -10 -12 -10 3 0 22 -14 22 -31 0 -12 -15 -12 -16 3 -10 13 4 15 2
11 -10 -5 -12 -3 -14 8 -8 8 5 4 -3 -8 -17 -31 -33 -29 -47 2 -18 22 21 25 21
31 6 4 -9 4 -20 0 -23 -3 -4 -6 2 -6 12 0 17 -3 16 -25 -5 -26 -25 -26 -42 0
-20 10 8 15 9 15 1 0 -6 -5 -11 -11 -11 -5 0 -7 -4 -4 -10 6 -10 -8 -14 -34
-10 -13 2 -13 0 0 -16 8 -11 9 -15 2 -10 -7 4 -13 3 -13 -1 0 -14 54 -41 70
-35 8 2 5 -4 -7 -15 -13 -11 -19 -23 -16 -27 4 -4 -1 -4 -12 0 -17 7 -18 5 -8
-8 7 -8 10 -18 6 -21 -3 -4 -1 -7 6 -7 7 0 10 -4 6 -9 -7 -13 35 -42 49 -34 6
3 8 3 4 -2 -4 -4 -2 -15 4 -24 10 -12 8 -12 -8 2 -25 21 -41 23 -24 2 10 -12
10 -15 0 -15 -8 0 -9 -6 -5 -17 4 -10 8 -24 8 -30 0 -7 4 -13 8 -13 4 0 6 -9
4 -20 -2 -12 5 -26 18 -35 12 -8 17 -15 12 -16 -6 0 -1 -4 10 -9 17 -7 17 -9
3 -9 -18 -1 -14 -31 4 -31 5 0 6 5 3 10 -3 6 -2 10 3 10 6 0 13 -7 16 -16 3
-8 2 -12 -4 -9 -6 3 -10 1 -10 -4 0 -8 -7 -7 -19 1 -11 7 -18 15 -15 19 2 4 0
10 -5 14 -6 3 -7 13 -4 22 5 12 2 15 -10 10 -11 -4 -14 -2 -10 9 3 9 0 14 -8
12 -8 -2 -14 4 -14 12 0 8 -4 21 -9 28 -4 7 -4 12 1 11 28 -5 20 4 -23 26 -55
28 -66 31 -41 13 9 -7 17 -20 19 -28 2 -8 12 -22 23 -31 11 -10 17 -21 12 -25
-4 -4 -14 1 -22 12 -14 18 -14 17 -4 -8 9 -20 16 -25 24 -18 12 10 25 4 25
-12 0 -5 -4 -7 -9 -3 -5 3 -13 0 -17 -6 -4 -8 -3 -9 4 -5 7 4 12 2 12 -3 0 -6
-6 -11 -12 -11 -7 0 0 -9 16 -19 17 -11 34 -17 40 -14 5 4 7 -1 3 -11 -4 -10
-3 -15 3 -11 6 3 10 2 10 -3 0 -6 -12 -13 -26 -16 -15 -4 -24 -9 -22 -12 3 -2
17 0 31 5 19 8 28 6 37 -5 7 -7 9 -14 4 -14 -4 0 -3 -5 3 -11 6 -6 10 -17 9
-23 -2 -6 -1 -8 1 -3 3 4 9 7 14 7 6 0 7 -4 4 -10 -3 -5 -1 -10 4 -10 6 0 11
5 11 11 0 5 5 7 10 4 8 -5 7 -12 -2 -23 -8 -10 -9 -13 -1 -9 6 4 13 2 16 -5 2
-7 3 -5 2 5 -2 9 2 17 8 17 11 1 -21 24 -33 25 -3 0 -13 5 -24 11 -12 8 -15
14 -7 18 6 4 11 2 11 -4 0 -6 5 -8 11 -4 8 4 7 9 -2 15 -7 4 -17 5 -23 2 -5
-4 -7 1 -3 10 4 11 2 14 -9 10 -7 -3 -14 -1 -14 4 0 5 11 9 24 9 17 0 22 -4
18 -15 -3 -9 -1 -12 6 -7 7 4 13 2 13 -3 1 -6 3 -15 4 -21 1 -5 3 -13 4 -17 1
-5 6 -1 12 7 9 13 10 12 5 -2 -3 -12 0 -18 9 -18 10 0 13 -9 10 -35 -3 -19 0
-36 5 -36 6 -1 16 -2 23 -3 6 0 12 -6 12 -13 0 -6 4 -15 9 -20 5 -5 6 -3 2 5
-10 16 20 27 38 13 7 -6 16 -8 19 -4 4 3 7 -1 7 -11 0 -15 -2 -15 -25 0 -14 9
-25 14 -25 10 0 -3 18 -18 40 -32 22 -15 37 -30 35 -35 -3 -4 -1 -10 4 -13 12
-8 8 13 -8 42 -7 13 -10 26 -7 30 3 3 6 0 6 -7 0 -7 4 -10 9 -6 5 3 12 1 16
-4 3 -5 14 -8 25 -6 12 2 18 0 15 -5 -3 -5 -14 -7 -25 -5 -13 3 -17 -1 -13
-11 3 -7 9 -12 13 -9 5 3 15 2 24 -1 12 -5 13 -11 5 -27 -10 -21 -10 -21 5 -3
10 12 12 23 6 31 -6 7 -3 11 9 11 15 0 17 -4 10 -23 -11 -30 18 -47 55 -33 14
5 26 6 26 2 0 -4 5 0 11 8 9 13 10 13 6 0 -2 -8 -10 -15 -17 -15 -7 0 -15 -7
-17 -15 -3 -9 -1 -11 4 -5 4 6 14 10 21 9 6 -1 18 -2 25 -3 8 -1 7 -4 -3 -11
-11 -7 -8 -8 13 -6 15 1 30 6 34 9 13 14 25 6 13 -8 -7 -9 -10 -18 -6 -22 3
-3 6 -1 6 6 0 7 5 9 13 4 6 -4 15 -8 20 -9 4 -1 10 -3 15 -4 4 -1 18 -1 31 0
14 1 21 -2 17 -9 -4 -6 -3 -11 3 -11 5 0 13 5 16 11 5 6 12 4 21 -8 11 -14 13
-15 14 -3 0 12 4 10 15 -4 11 -14 15 -16 15 -5 0 9 3 10 8 3 8 -13 45 -28 38
-15 -3 5 13 2 35 -5 22 -8 51 -15 65 -16 13 -1 24 -5 24 -9 0 -3 6 -6 13 -6
20 -2 69 -11 120 -22 26 -6 66 -15 90 -20 202 -45 335 -121 381 -220 28 -61
29 -169 2 -249 -26 -76 -132 -183 -189 -191 -4 0 -21 -8 -39 -17 -17 -9 -45
-19 -62 -21 -17 -3 -35 -6 -41 -7 -5 -1 -14 -4 -20 -8 -14 -8 -305 -7 -305 1
0 4 -8 7 -17 8 -46 2 -73 8 -73 15 0 4 -13 8 -29 8 -16 0 -34 7 -41 15 -15 18
-34 20 -25 3 4 -7 0 -5 -9 6 -8 10 -19 15 -25 11 -6 -3 -11 1 -11 9 0 9 -7 16
-15 16 -8 0 -15 5 -15 10 0 6 -9 10 -21 10 -11 0 -17 4 -14 10 3 5 1 10 -5 10
-6 0 -8 4 -5 10 3 6 -1 7 -9 4 -11 -4 -16 0 -16 10 0 9 -5 16 -11 16 -5 0 -7
-5 -3 -12 4 -6 3 -8 -4 -5 -5 4 -8 17 -5 30 4 18 3 19 -6 7 -9 -12 -11 -11
-12 10 -1 14 -1 28 0 32 0 4 -5 5 -13 2 -7 -3 -16 2 -20 11 -4 11 -2 14 7 9 8
-5 8 -2 -2 9 -7 9 -18 14 -24 10 -5 -3 -7 -1 -3 5 3 6 2 14 -4 17 -8 5 -8 11
0 20 8 10 6 18 -10 33 -16 15 -18 22 -9 27 8 5 10 4 5 -3 -4 -7 -3 -12 3 -12
5 0 9 9 8 20 -1 13 -6 19 -15 15 -7 -2 -10 0 -7 5 5 9 -6 14 -26 12 -3 -1 -6
5 -6 13 0 12 4 11 21 -1 11 -8 25 -14 31 -14 5 0 -3 8 -20 19 -19 12 -34 15
-42 9 -7 -5 -14 -5 -18 2 -3 6 -11 7 -17 4 -6 -4 -15 0 -20 7 -8 11 -9 10 -4
-3 8 -26 -9 -22 -22 5 -6 12 -11 16 -11 9 -1 -7 -5 -11 -10 -8 -5 3 -12 -1
-15 -9 -4 -13 -2 -14 14 -5 11 6 20 7 20 2 0 -21 -43 -21 -60 0 -20 25 -51 33
-43 11 4 -11 8 -11 13 -3 5 9 9 9 14 1 7 -10 0 -14 -41 -27 -7 -2 -15 2 -19 8
-4 6 -3 8 4 4 6 -3 13 -2 16 3 4 5 2 12 -3 15 -5 4 -13 1 -16 -4 -5 -8 -14 -5
-28 7 -11 10 -17 12 -13 6 7 -12 -10 -18 -41 -14 -7 1 -13 -2 -13 -8 0 -9 26
-9 59 0 7 2 15 -1 18 -8 3 -7 -3 -9 -18 -6 -13 4 -20 2 -16 -4 3 -5 0 -10 -8
-10 -8 0 -15 5 -15 10 0 5 -8 3 -17 -4 -11 -10 -14 -10 -9 -1 4 6 2 12 -3 12
-6 0 -10 6 -9 12 2 8 -6 12 -17 11 -10 -1 -28 3 -40 9 -11 6 -17 7 -13 3 4 -5
3 -13 -2 -20 -7 -8 -5 -12 5 -12 8 0 12 4 9 9 -3 4 0 8 5 8 6 0 11 -5 11 -11
0 -8 5 -7 15 1 9 7 18 10 22 6 3 -3 1 -6 -7 -6 -10 0 -10 -3 -1 -14 9 -11 9
-16 0 -22 -7 -4 -9 -3 -5 4 3 6 2 13 -4 17 -5 3 -10 0 -10 -7 0 -9 -3 -9 -10
2 -9 13 -10 13 -10 0 0 -9 -3 -11 -8 -5 -11 16 -25 12 -50 -13 -12 -12 -27
-20 -31 -17 -5 2 -11 -2 -15 -10 -3 -8 -1 -17 4 -20 6 -4 10 -1 10 5 0 6 5 8
10 5 6 -4 5 -12 -4 -21 -17 -17 -30 -19 -20 -2 4 7 3 8 -4 4 -7 -4 -10 1 -7
13 2 11 -3 22 -11 25 -9 3 -12 1 -9 -4 3 -5 8 -19 10 -31 3 -15 0 -19 -10 -15
-22 8 -18 -2 6 -15 17 -9 20 -8 14 2 -5 8 -4 10 4 5 6 -4 9 -11 6 -16 -3 -5
-1 -11 5 -15 5 -3 10 -1 10 4 0 6 4 11 9 11 5 0 8 -8 6 -17 -1 -10 3 -25 9
-33 9 -13 9 -13 -6 -2 -15 12 -17 11 -15 -7 1 -12 8 -21 17 -22 9 0 5 -4 -8
-10 -13 -5 -20 -13 -17 -19 3 -5 0 -10 -7 -10 -7 -1 -2 -7 11 -14 13 -7 33
-12 45 -10 13 3 15 2 6 -2 -8 -4 -21 -12 -29 -18 -12 -9 -13 -8 -6 4 4 8 5 12
0 8 -4 -4 -14 -3 -21 3 -9 7 -12 6 -10 -8 2 -11 11 -18 24 -18 31 0 37 -13 16
-36 -19 -22 -19 -22 5 -9 13 6 21 7 17 2 -3 -6 3 -14 15 -17 15 -5 18 -10 9
-15 -8 -5 -8 -9 4 -13 10 -4 13 -13 9 -24 -6 -16 -5 -17 13 -3 17 14 18 14 6
-2 -11 -14 -10 -18 4 -26 15 -8 15 -9 0 -15 -11 -5 -15 -3 -10 5 4 7 3 8 -5 4
-6 -4 -10 -4 -9 1 1 4 -5 22 -15 39 -9 17 -14 34 -11 36 3 3 -2 8 -10 11 -9 4
-18 1 -22 -5 -4 -7 -3 -8 4 -4 11 6 13 3 12 -19 0 -3 8 -15 19 -26 11 -12 17
-27 14 -35 -5 -13 8 -19 30 -15 5 1 6 -7 2 -18 -3 -12 0 -21 9 -24 9 -4 13
-15 11 -27 -2 -11 0 -18 6 -15 5 4 7 10 4 15 -3 5 3 8 14 7 11 0 18 -4 15 -8
-2 -4 3 -14 11 -22 21 -21 19 -26 -7 -21 -13 2 -17 1 -8 -2 8 -4 21 -13 28
-21 7 -7 21 -13 30 -12 14 0 13 2 -3 9 -14 6 -15 9 -5 9 25 1 40 -20 30 -39
-6 -12 -5 -17 5 -17 8 0 13 3 12 6 -2 6 7 11 18 11 3 0 1 -9 -5 -19 -15 -29
22 -54 59 -40 14 6 22 7 18 3 -4 -4 -1 -14 5 -23 10 -13 10 -14 -2 -3 -17 15
-30 16 -30 2 0 -6 6 -9 13 -8 6 2 11 -4 9 -12 -3 -12 -1 -13 9 -3 17 17 32 17
23 1 -5 -9 -2 -9 9 1 19 15 24 2 6 -16 -8 -8 -8 -13 0 -18 6 -3 11 -3 10 2 -3
20 2 27 11 13 6 -10 10 -11 10 -2 0 6 5 12 12 12 6 0 8 -3 5 -6 -3 -4 -1 -16
5 -27 10 -20 11 -20 24 -2 13 18 14 18 14 -4 0 -20 1 -21 16 -7 21 22 27 20
14 -3 -14 -28 -12 -38 3 -16 11 14 16 15 22 5 6 -9 4 -11 -5 -5 -9 6 -11 4 -5
-4 5 -9 11 -9 18 -2 7 7 15 3 27 -11 14 -17 20 -19 38 -9 15 8 23 8 28 -1 5
-7 3 -8 -7 -3 -12 7 -12 6 -1 -7 14 -18 55 -21 45 -3 -4 5 4 1 17 -10 13 -11
20 -15 17 -9 -4 7 0 15 9 18 8 3 12 2 9 -4 -3 -6 -1 -11 4 -11 21 -3 26 -4 40
-13 10 -6 12 -5 7 2 -4 7 -2 12 3 12 6 0 11 -5 11 -12 0 -6 3 -8 7 -5 3 4 17
0 29 -8 18 -12 22 -12 18 -2 -3 8 2 14 10 14 9 0 12 -6 8 -16 -5 -14 -3 -14
11 -2 9 7 17 9 17 4 0 -5 9 -9 19 -9 11 0 17 4 15 8 -3 4 0 8 5 8 6 0 11 -5
11 -11 0 -5 8 -9 18 -7 9 1 23 -2 31 -6 11 -7 13 -5 8 7 -4 11 -2 14 8 10 8
-3 13 -8 11 -12 -3 -4 4 -7 14 -7 10 0 16 4 13 9 -4 7 28 3 65 -9 6 -2 12 2
12 9 0 8 4 6 10 -3 5 -8 10 -10 10 -5 0 6 28 10 64 10 41 0 62 -3 58 -10 -3
-5 1 -5 9 2 8 7 24 12 34 12 80 2 252 38 355 75 75 28 152 65 162 80 4 6 8 7
8 3 0 -13 112 73 159 122 59 63 97 119 136 204 30 68 57 157 59 202 1 11 4 25
8 30 8 15 6 275 -3 281 -5 2 -6 11 -3 18 3 8 0 17 -5 21 -6 3 -9 10 -7 14 13
21 -52 175 -102 241 -71 94 -192 178 -343 238 -85 33 -226 83 -249 87 -3 1
-30 8 -60 17 -52 16 -277 76 -310 83 -8 2 -24 7 -34 11 -15 6 -18 4 -12 -7 4
-8 0 -5 -8 5 -10 13 -16 15 -16 7 0 -11 -3 -11 -15 -1 -9 7 -18 10 -22 7 -3
-4 -12 1 -20 11 -8 9 -12 11 -8 5 4 -9 1 -11 -9 -7 -9 3 -13 11 -9 18 4 6 -1
5 -10 -3 -15 -12 -19 -12 -31 4 -13 19 -51 31 -40 14 3 -5 10 -6 16 -3 7 5 8
2 3 -6 -6 -9 -4 -11 5 -5 9 5 11 4 6 -4 -8 -13 -26 -3 -54 29 -12 13 -13 13
-9 -1 3 -9 -1 -16 -9 -16 -8 0 -14 4 -14 9 0 4 -5 8 -11 8 -5 0 -7 -6 -4 -12
4 -7 -2 -3 -13 9 -15 17 -22 19 -32 10 -10 -9 -11 -9 -6 1 7 12 0 15 -36 15
-10 0 -16 3 -13 7 5 8 -26 40 -37 37 -8 -2 -33 20 -56 48 -12 14 -15 13 -33
-7 l-21 -23 15 24 c9 13 13 30 10 37 -3 8 0 14 7 14 6 0 9 4 6 9 -3 5 -14 8
-24 6 -9 -1 -11 0 -4 2 6 3 12 9 12 14 0 6 -4 8 -8 5 -4 -2 -9 5 -9 16 -1 11
-10 26 -20 34 -17 13 -17 14 2 8 16 -6 18 -4 8 6 -9 10 -10 17 -2 27 14 16 -3
17 -19 1 -9 -9 -12 -9 -12 0 0 7 5 12 12 12 6 0 8 3 5 6 -3 4 -1 16 5 27 9 17
8 19 -6 14 -9 -4 -16 -2 -16 3 0 5 14 8 30 8 18 -1 29 -6 27 -12 -3 -6 -9 -10
-15 -9 -5 1 -13 -5 -16 -13 -5 -12 -1 -14 17 -9 17 5 19 4 7 -4 -13 -9 -13
-11 -1 -11 11 0 9 -4 -5 -14 -18 -14 -18 -15 -1 -22 15 -5 16 -9 5 -15 -10 -7
-10 -9 0 -9 7 0 12 -6 10 -12 -3 -17 20 -58 32 -58 6 0 10 5 10 11 0 5 -4 8
-8 5 -4 -2 -13 4 -20 15 -14 21 -3 25 18 7 8 -7 4 -1 -9 15 -25 28 -20 37 9
15 9 -7 3 -1 -13 13 -18 17 -25 29 -18 33 6 4 11 2 11 -5 0 -7 3 -10 6 -6 3 3
2 12 -2 19 -22 35 3 95 34 84 9 -3 6 2 -7 11 -31 23 -51 25 -51 6 0 -12 3 -13
13 -4 10 8 14 7 14 -2 0 -7 -14 -13 -30 -14 -16 0 -24 3 -18 7 7 4 13 16 14
28 0 11 4 19 8 16 4 -2 10 0 14 6 3 6 -4 10 -17 11 l-23 0 24 10 c14 6 21 15
17 24 -3 8 0 17 6 21 7 5 8 2 3 -6 -6 -10 -4 -12 9 -7 10 4 15 3 11 -3 -3 -5
8 -16 26 -25 17 -9 28 -12 25 -6 -4 6 -2 11 5 11 8 0 8 4 2 13 -6 6 -9 20 -8
30 2 9 -5 23 -14 30 -9 6 -21 19 -26 27 -5 10 -1 8 13 -4 19 -16 24 -17 38 -5
10 8 19 13 21 12 1 -2 6 -3 11 -3 4 0 0 5 -8 10 -8 5 -10 10 -4 10 6 0 14 -3
18 -7 15 -15 37 -11 31 6 -8 25 40 47 50 23 5 -15 8 -14 23 6 17 21 18 22 18
3 0 -11 -5 -17 -10 -14 -5 3 -6 1 -2 -5 4 -7 -1 -10 -14 -7 -13 3 -18 0 -14
-7 5 -7 2 -8 -6 -3 -9 5 -11 4 -6 -3 5 -8 1 -10 -11 -6 -15 5 -16 4 -3 -6 13
-10 13 -11 -2 -6 -11 3 -18 0 -18 -7 0 -9 -2 -9 -9 1 -6 10 -10 10 -20 -1 -9
-11 -7 -17 6 -28 16 -13 17 -12 4 4 -15 20 -2 23 18 5 11 -11 12 -10 6 1 -6
11 -2 13 18 9 17 -3 24 -1 21 7 -3 6 3 18 12 26 15 12 16 11 11 -11 -4 -14 -4
-19 -1 -12 3 6 10 10 15 7 5 -4 6 0 4 7 -6 16 31 18 55 4 12 -8 13 -7 3 6 -7
8 -11 17 -8 20 3 2 -2 5 -10 5 -8 0 -15 -4 -15 -9 0 -4 -4 -8 -9 -8 -5 0 -8 8
-6 18 2 9 4 22 5 27 0 6 5 2 11 -8 10 -17 29 -15 29 4 0 6 -6 7 -12 3 -8 -5
-7 0 2 11 8 10 13 19 10 21 -3 1 -2 5 1 8 3 4 5 -9 4 -29 -1 -26 3 -35 15 -35
9 0 22 -6 29 -12 11 -11 14 -10 18 0 3 6 9 10 14 6 5 -3 12 1 15 10 3 8 13 12
22 9 10 -3 7 4 -8 16 -14 12 -18 19 -9 15 10 -3 20 -1 24 5 3 6 11 11 18 11 6
0 3 -6 -8 -13 -14 -11 -15 -16 -5 -22 7 -4 16 -2 21 6 5 8 9 9 9 3 0 -5 -5
-15 -10 -20 -7 -7 -5 -17 6 -30 15 -18 15 -18 4 4 -13 26 4 31 19 5 6 -10 11
-12 11 -5 0 6 7 12 16 12 9 0 12 -5 8 -12 -4 -7 -3 -8 5 -4 6 4 8 12 5 18 -5
7 -1 9 9 5 10 -4 29 -2 43 3 23 9 25 8 19 -12 -4 -16 -3 -19 3 -10 5 8 13 14
17 14 4 0 12 -6 17 -14 8 -10 9 -10 5 2 -2 8 -9 14 -14 13 -5 -1 -10 5 -10 12
0 10 4 12 12 5 7 -5 15 -6 19 -2 4 4 7 2 6 -3 -6 -30 1 -38 15 -19 14 17 14
17 9 1 -5 -13 -2 -18 7 -17 8 1 23 2 34 1 17 -1 18 -3 5 -11 -8 -5 -10 -10 -4
-10 5 0 16 6 23 13 11 10 13 10 7 0 -5 -8 -1 -13 9 -13 10 0 13 -5 9 -12 -5
-9 -2 -9 9 1 15 12 17 11 17 -10 0 -18 3 -20 12 -11 26 26 163 -163 166 -228
1 -8 3 -24 6 -35 2 -11 5 -29 5 -40 1 -20 7 -21 269 -21 298 0 285 -4 271 71
-4 22 -10 56 -13 75 -12 82 -52 199 -88 260 -35 59 -72 114 -91 135 -11 11
-37 41 -60 68 -22 26 -47 47 -54 47 -8 0 -12 4 -8 9 3 6 -4 8 -16 6 -18 -4
-19 -2 -7 12 11 14 10 15 -9 9 -13 -4 -24 -2 -29 5 -5 8 -3 10 7 4 10 -6 11
-5 3 4 -6 6 -24 13 -41 14 -17 1 -29 6 -26 10 2 4 14 5 26 2 17 -5 19 -4 7 4
-8 6 -23 8 -32 5 -10 -3 -18 0 -18 6 0 7 -9 9 -22 5 -13 -3 -18 -3 -13 2 13
10 18 36 6 29 -5 -4 -12 -2 -16 4 -4 7 -13 6 -27 -1 -16 -9 -24 -7 -37 6 -9
10 -11 15 -6 12 6 -3 11 4 12 16 0 12 -1 16 -4 10 -6 -16 -53 -17 -53 -2 0 5
-5 7 -11 3 -8 -4 -7 -9 2 -15 7 -4 10 -11 6 -15 -4 -4 -14 1 -22 13 -15 21
-70 30 -58 9 4 -6 -1 -5 -10 3 -15 12 -20 12 -33 -5 -15 -18 -15 -18 -5 2 7
15 7 25 -2 34 -10 12 -9 12 6 1 9 -7 17 -10 17 -5 0 5 4 2 10 -6 8 -12 10 -12
16 4 4 11 2 21 -7 27 -23 14 -34 10 -13 -5 16 -13 16 -14 2 -12 -9 1 -25 9
-35 19 -13 11 -23 13 -33 7 -8 -5 -27 -10 -41 -10 -15 0 -30 -7 -33 -16 -3 -8
-10 -12 -16 -9 -19 12 -32 -6 -18 -23 12 -15 11 -16 -4 -3 -10 7 -16 17 -13
21 3 4 -2 13 -9 19 -9 8 -17 8 -20 2 -3 -5 -3 -11 1 -14 5 -2 1 -2 -7 1 -8 3
-23 4 -32 4 -9 0 -22 6 -29 14 -6 8 -16 14 -22 14 -6 0 0 -11 13 -25 21 -22
21 -25 6 -31 -9 -4 -20 -4 -23 0 -4 3 2 6 12 6 17 0 17 1 0 20 -17 19 -35 19
-35 -1 0 -6 6 -7 13 -3 6 4 9 3 4 -1 -12 -13 -66 -13 -61 0 3 8 -7 11 -28 9
-45 -3 -45 -3 -25 -15 9 -5 21 -8 25 -5 11 7 8 -31 -3 -41 -4 -5 -5 -3 -2 3 4
6 -12 26 -35 44 -24 20 -39 27 -35 18 7 -20 -23 -34 -35 -16 -4 7 -8 15 -8 18
0 9 -40 7 -40 -2 0 -4 6 -8 13 -8 8 0 19 -12 26 -27 l12 -28 -19 24 c-12 14
-22 20 -26 13 -3 -6 -1 -13 4 -15 6 -3 5 -4 -2 -3 -7 2 -12 12 -10 22 2 18 2
18 -12 1 -12 -16 -14 -16 -20 -1 -5 13 -9 14 -21 4 -8 -7 -12 -17 -9 -22 4 -6
10 -5 15 3 6 10 8 8 7 -7 -1 -11 -8 -21 -15 -21 -6 0 -10 3 -8 7 2 3 -5 11
-15 18 -11 6 -22 8 -24 3 -3 -5 1 -11 9 -15 8 -3 15 -11 14 -18 0 -10 -2 -10
-6 0 -2 6 -9 10 -14 6 -8 -4 -13 8 -11 27 1 4 -10 6 -23 5 -14 0 -23 -5 -21
-11 2 -5 10 -8 17 -7 8 2 11 0 7 -4 -4 -4 0 -12 9 -19 13 -9 13 -14 3 -20 -9
-6 -11 -4 -5 5 6 10 4 12 -9 7 -11 -5 -15 -3 -10 5 5 7 2 9 -9 5 -12 -4 -14
-2 -10 10 5 12 3 14 -7 8 -8 -5 -18 -2 -26 9 -7 10 -21 19 -31 20 -19 3 -32
36 -13 36 6 0 8 -5 4 -12 -4 -6 -3 -8 4 -4 6 3 13 2 17 -4 4 -6 11 -8 16 -5 5
4 9 -3 9 -14 0 -12 5 -21 11 -21 6 0 9 7 6 15 -4 8 -1 17 5 21 6 4 9 3 5 -2
-3 -5 16 -10 43 -10 40 0 48 3 45 17 -2 11 2 16 13 14 9 -1 22 2 28 7 7 5 16
8 20 6 5 -1 20 4 33 11 13 7 21 9 18 4 -3 -5 7 -9 23 -9 16 0 26 4 23 9 -3 6
-1 7 6 3 6 -4 8 -13 4 -19 -4 -7 0 -6 10 2 9 7 17 10 17 7 0 -4 10 -2 21 5 17
9 20 8 14 -2 -6 -8 -4 -10 5 -4 9 6 11 4 5 -6 -7 -11 -6 -12 7 -2 8 7 18 10
22 6 4 -4 4 1 0 12 -7 20 -6 20 9 0 8 -11 19 -16 24 -12 10 11 13 68 2 61 -4
-2 -6 -11 -2 -19 3 -10 -1 -15 -12 -15 -10 0 -13 4 -9 13 6 9 4 9 -8 -1 -14
-11 -18 -10 -28 8 -12 23 -34 22 -36 -1 -1 -8 -2 -20 -3 -28 -1 -19 -16 -4
-16 17 0 11 -7 16 -19 14 -11 -2 -15 1 -11 7 3 6 1 11 -5 11 -7 0 -10 -6 -7
-12 2 -7 12 -12 21 -12 9 1 16 -1 16 -5 0 -16 -13 -20 -31 -10 -14 7 -27 5
-48 -5 -28 -15 -29 -15 -41 14 -6 16 -19 31 -28 35 -14 5 -14 4 1 -13z m193
-11 c-3 -5 1 -11 9 -15 8 -3 15 -11 15 -17 0 -8 -4 -9 -13 0 -8 6 -16 9 -18 6
-3 -2 -5 5 -6 15 -1 11 3 20 8 20 6 0 8 -4 5 -9z m-161 -39 c2 -7 0 -10 -5 -7
-6 3 -16 3 -22 -2 -26 -15 -38 -12 -28 7 11 21 47 23 55 2z m75 8 c0 -5 -4
-10 -10 -10 -5 0 -10 5 -10 10 0 6 5 10 10 10 6 0 10 -4 10 -10z m-185 -30 c7
11 25 4 25 -9 0 -12 -60 -20 -66 -9 -10 15 7 30 21 18 9 -8 15 -8 20 0z m633
-19 c-6 -10 -17 -18 -24 -18 -7 0 -11 4 -8 8 2 4 -5 7 -16 6 -11 -1 -20 -5
-20 -9 0 -4 -5 -8 -11 -8 -8 0 -8 5 1 15 7 8 15 13 19 11 3 -2 17 2 31 9 30
16 43 10 28 -14z m-688 9 c0 -5 -4 -10 -10 -10 -5 0 -10 5 -10 10 0 6 5 10 10
10 6 0 10 -4 10 -10z m-73 -36 c4 -12 8 -12 13 -3 6 8 11 6 19 -8 8 -15 7 -25
-4 -39 -9 -12 -14 -14 -15 -6 0 7 -4 10 -10 7 -5 -3 -10 -1 -10 5 0 7 6 10 13
7 8 -3 14 1 14 8 0 7 -7 11 -16 10 -9 -2 -18 -4 -21 -4 -14 -2 -4 -41 10 -42
9 0 6 -4 -7 -9 -13 -5 -23 -14 -23 -19 0 -5 10 -7 23 -5 20 4 20 4 2 -5 -26
-11 -42 3 -25 24 15 18 0 20 -20 3 -12 -11 -12 -10 -1 4 11 14 10 17 -7 15
-13 -1 -19 -9 -19 -29 0 -21 3 -25 13 -17 10 8 10 5 1 -15 -8 -17 -13 -21 -15
-11 -4 17 -22 21 -22 5 0 -5 -9 -19 -19 -29 -19 -19 -20 -19 -19 7 1 44 -2 53
-12 47 -6 -4 -7 -11 -4 -17 4 -6 3 -8 -2 -5 -5 3 -17 -8 -26 -24 -17 -29 -17
-29 8 -25 14 3 22 1 19 -5 -4 -5 -11 -7 -16 -4 -5 4 -9 1 -9 -6 0 -8 -4 -8
-15 1 -12 10 -16 10 -19 -1 -15 -50 -16 -51 -30 -40 -20 17 -43 -13 -26 -34 9
-10 9 -15 1 -15 -6 0 -11 5 -11 11 0 5 -4 8 -9 4 -6 -3 -14 1 -18 10 -7 12
-10 11 -21 -6 -10 -16 -10 -20 0 -18 28 3 43 -1 31 -9 -6 -4 -19 -21 -27 -37
-10 -19 -16 -24 -16 -13 0 9 5 20 10 23 6 3 10 11 10 18 0 8 -3 8 -11 0 -6 -6
-18 -9 -25 -6 -8 3 -20 0 -27 -5 -8 -7 -18 -8 -27 -1 -12 8 -11 9 5 7 14 -2
20 3 21 20 1 12 -3 22 -9 22 -5 0 -4 7 3 15 7 8 17 15 23 15 7 0 7 -4 -1 -12
-9 -9 -9 -15 1 -27 10 -12 9 -13 -2 -6 -10 5 -12 4 -7 -4 4 -6 11 -9 16 -6 4
3 11 -1 14 -7 2 -7 4 -4 3 7 -2 11 -6 26 -10 33 -5 6 -4 12 2 12 5 0 12 -6 14
-12 4 -10 6 -10 6 0 1 7 -10 17 -23 24 -30 13 -40 34 -20 42 10 4 14 0 12 -11
-2 -12 4 -18 20 -19 12 -1 22 4 22 10 0 6 4 4 9 -4 6 -8 7 -18 4 -24 -3 -5 -1
-6 6 -2 6 4 9 12 6 17 -7 10 33 66 42 61 13 -8 21 23 10 37 -9 12 -9 13 1 7
11 -6 17 5 13 27 -2 12 11 8 30 -9 16 -14 18 -14 29 5 7 15 7 21 0 21 -7 0 -6
5 2 14 11 12 15 12 31 -1 9 -9 17 -12 17 -7 0 5 9 20 20 34 11 14 18 18 14 9
-10 -30 14 -30 43 0 32 35 41 37 50 15z m353 -4 c0 -5 -7 -7 -15 -4 -8 4 -15
8 -15 10 0 2 7 4 15 4 8 0 15 -4 15 -10z m-120 -19 c0 -6 -4 -12 -8 -15 -5 -3
-9 1 -9 9 0 8 4 15 9 15 4 0 8 -4 8 -9z m637 3 c-3 -3 -12 -4 -19 -1 -8 3 -5
6 6 6 11 1 17 -2 13 -5z m71 -29 c-3 -3 -9 2 -12 12 -6 14 -5 15 5 6 7 -7 10
-15 7 -18z m-860 -32 c-6 -7 -13 -13 -15 -13 -3 0 0 6 6 14 9 10 8 15 -4 20
-8 3 -15 1 -15 -4 0 -6 -5 -10 -10 -10 -6 0 -6 7 1 19 11 17 14 17 30 3 14
-12 15 -19 7 -29z m192 37 c0 -5 -5 -10 -11 -10 -5 0 -7 5 -4 10 3 6 8 10 11
10 2 0 4 -4 4 -10z m754 -21 c-3 -5 -10 -7 -15 -3 -5 3 -7 10 -3 15 3 5 10 7
15 3 5 -3 7 -10 3 -15z m-883 -12 c-10 -9 -11 -8 -5 6 3 10 9 15 12 12 3 -3 0
-11 -7 -18z m-116 -7 c3 -5 1 -10 -4 -10 -6 0 -11 5 -11 10 0 6 2 10 4 10 3 0
8 -4 11 -10z m-44 -53 c-10 -9 -11 -8 -5 6 3 10 9 15 12 12 3 -3 0 -11 -7 -18z
m-141 -7 c0 -5 -5 -10 -11 -10 -5 0 -7 5 -4 10 3 6 8 10 11 10 2 0 4 -4 4 -10z
m-150 -14 c0 -2 -7 -7 -16 -10 -8 -3 -12 -2 -9 4 6 10 25 14 25 6z m200 -6 c0
-5 -5 -10 -11 -10 -5 0 -7 5 -4 10 3 6 8 10 11 10 2 0 4 -4 4 -10z m40 -14 c0
-3 -4 -8 -10 -11 -5 -3 -10 -1 -10 4 0 6 5 11 10 11 6 0 10 -2 10 -4z m1305
-16 c3 -6 -1 -7 -9 -4 -18 7 -21 14 -7 14 6 0 13 -4 16 -10z m-1390 -18 c-3
-3 -11 0 -18 7 -9 10 -8 11 6 5 10 -3 15 -9 12 -12z m-37 -14 c-2 -7 2 -12 8
-11 6 1 11 -5 11 -12 0 -10 -4 -12 -12 -5 -7 5 -14 7 -18 4 -4 -5 -3 16 2 34
3 9 11 0 9 -10z m-38 -32 c0 -2 -9 -2 -20 1 -11 3 -20 9 -20 15 0 5 9 4 20 -2
11 -6 20 -12 20 -14z m94 16 c3 -5 -1 -9 -9 -9 -8 0 -12 4 -9 9 3 4 7 8 9 8 2
0 6 -4 9 -8z m-117 -50 c0 -10 -6 -19 -13 -19 -9 0 -9 5 -1 19 7 10 13 18 14
18 1 0 1 -8 0 -18z m-42 -23 c-4 -5 -12 -9 -18 -8 -9 0 -8 2 1 6 6 2 9 10 6
15 -4 7 -2 8 5 4 6 -4 9 -12 6 -17z m-148 -18 c12 -20 9 -26 -24 -44 -17 -10
-10 23 8 34 10 6 10 9 2 9 -7 0 -13 5 -13 10 0 16 14 11 27 -9z m93 -32 c0
-14 -17 -10 -23 5 -4 10 -1 13 9 9 7 -3 14 -9 14 -14z m760 5 c0 -8 -19 -13
-24 -6 -3 5 1 9 9 9 8 0 15 -2 15 -3z m-740 -29 c-7 -9 -15 -13 -19 -10 -3 3
1 10 9 15 21 14 24 12 10 -5z m553 -15 c-7 -27 -13 -25 -11 4 1 14 5 23 9 20
4 -2 5 -13 2 -24z m-583 -5 c14 -18 13 -19 -1 -8 -9 7 -19 10 -22 6 -4 -3 -7
-2 -7 4 0 9 12 26 14 21 1 -2 8 -12 16 -23z m883 12 c4 3 7 1 7 -5 0 -6 -9
-13 -20 -16 -30 -9 -34 -8 -36 10 -2 12 0 14 9 5 18 -18 31 -13 16 7 -12 15
-12 16 2 5 9 -7 19 -10 22 -6z m-158 -7 c8 14 25 3 25 -16 0 -8 -4 -13 -9 -9
-5 3 -12 1 -16 -5 -4 -6 -11 -8 -16 -4 -5 3 -6 10 -3 16 5 7 2 9 -8 6 -8 -4
-15 0 -15 7 0 10 5 11 18 4 12 -6 20 -5 24 1z m205 1 c0 -5 -7 -12 -16 -15
-14 -5 -15 -4 -4 9 14 17 20 19 20 6z m-1085 -28 c9 -16 14 -20 11 -11 -6 21
19 31 34 12 12 -14 12 -15 -12 -18 -7 -1 -12 -9 -12 -19 1 -9 -2 -15 -6 -12
-5 3 -10 2 -13 -2 -2 -5 -2 -2 0 5 1 8 -4 23 -12 35 -15 21 -19 37 -10 37 2 0
12 -12 20 -27z m581 -7 c1 -7 -4 -13 -12 -13 -9 0 -11 4 -4 12 5 7 8 15 5 18
-3 4 -2 5 2 2 4 -3 8 -11 9 -19z m-396 -2 c0 -8 -19 -13 -24 -6 -3 5 1 9 9 9
8 0 15 -2 15 -3z m415 -24 c-3 -5 -12 -10 -18 -10 -7 0 -6 4 3 10 19 12 23 12
15 0z m-475 -20 c0 -5 -4 -10 -10 -10 -5 0 -10 5 -10 10 0 6 5 10 10 10 6 0
10 -4 10 -10z m415 -20 c-3 -4 3 -14 12 -21 15 -12 16 -12 9 6 -5 14 -4 17 4
9 17 -17 23 -67 8 -62 -7 3 -13 10 -13 17 0 6 -6 15 -13 20 -7 4 -14 14 -15
22 -2 8 -7 21 -12 29 -8 13 -7 13 8 1 9 -7 15 -17 12 -21z m-440 -20 c1 -16
-1 -17 -13 -8 -9 8 -10 14 -3 16 6 2 8 9 4 15 -3 7 -2 9 2 4 5 -4 9 -16 10
-27z m378 -35 c-3 -9 -8 -14 -10 -11 -3 3 -2 9 2 15 9 16 15 13 8 -4z m-376
-14 c-1 -19 -20 -22 -34 -6 -4 4 -2 5 5 1 7 -4 15 -1 18 8 8 21 13 20 11 -3z
m29 -29 c-17 -16 -18 -16 -5 5 7 12 15 20 18 17 3 -2 -3 -12 -13 -22z m299 -2
c3 -6 -1 -7 -9 -4 -18 7 -21 14 -7 14 6 0 13 -4 16 -10z m39 -25 c-4 -8 -11
-12 -16 -9 -6 4 -5 10 3 15 19 12 19 11 13 -6z m-393 -22 c13 -16 12 -17 -3
-4 -10 7 -18 15 -18 17 0 8 8 3 21 -13z m-17 -39 c5 -14 4 -15 -9 -4 -17 14
-19 20 -6 20 5 0 12 -7 15 -16z m43 -29 c0 -8 -4 -12 -9 -9 -5 3 -6 10 -3 15
9 13 12 11 12 -6z m-53 -41 c3 -8 2 -12 -4 -9 -6 3 -10 10 -10 16 0 14 7 11
14 -7z m-14 -24 c0 -5 -7 -10 -15 -10 -21 0 -19 -18 3 -23 15 -4 15 -5 0 -6
-26 -2 -33 20 -13 36 22 16 25 16 25 3z m430 -30 c8 -15 8 -18 -3 -14 -8 3
-14 11 -14 19 0 20 4 19 17 -5z m-394 -73 c4 -3 -4 -4 -16 -2 -30 6 -40 16
-12 12 12 -2 24 -6 28 -10z m-31 -35 c1 -11 -2 -19 -7 -16 -5 4 -7 12 -4 19 3
8 1 16 -5 19 -5 2 -4 3 2 2 7 -1 13 -12 14 -24z m499 -20 c3 -5 -1 -9 -9 -9
-8 0 -12 4 -9 9 3 4 7 8 9 8 2 0 6 -4 9 -8z m-474 -97 c0 -5 -5 -3 -10 5 -5 8
-10 20 -10 25 0 6 5 3 10 -5 5 -8 10 -19 10 -25z m-64 -3 c-3 -3 0 -12 7 -20
9 -13 9 -14 0 -8 -7 4 -18 16 -23 26 -9 16 -8 18 5 14 9 -4 13 -9 11 -12z m97
-52 c3 -11 1 -18 -4 -14 -5 3 -9 12 -9 20 0 20 7 17 13 -6z m43 -35 c-3 -23
-12 -26 -13 -5 -1 11 2 20 7 20 4 0 7 -7 6 -15z m-98 -12 c-6 -8 -7 -13 -2
-12 18 3 25 -1 19 -11 -9 -15 -45 7 -39 23 3 8 11 14 19 14 11 0 12 -3 3 -14z
m146 -62 c3 -4 -4 -7 -14 -6 -27 2 -33 10 -10 12 11 1 22 -2 24 -6z m31 -60
c3 -5 2 -12 -3 -15 -5 -3 -9 1 -9 9 0 17 3 19 12 6z m15 -53 c19 -24 17 -44
-3 -31 -7 4 -16 8 -22 8 -10 0 -15 23 -8 38 7 12 14 8 33 -15z m37 -20 c-3 -8
-6 -5 -6 6 -1 11 2 17 5 13 3 -3 4 -12 1 -19z m38 -8 c-3 -5 -12 -10 -18 -10
-7 0 -6 4 3 10 19 12 23 12 15 0z m150 -128 c-4 -4 -10 -1 -12 6 -3 6 -9 10
-14 7 -5 -4 -6 1 -3 9 5 14 8 14 21 0 9 -8 12 -18 8 -22z m-91 -467 c-4 -8
-11 -12 -16 -9 -6 4 -5 10 3 15 19 12 19 11 13 -6z m-417 -230 c0 -6 -6 -12
-12 -12 -6 0 -12 6 -12 12 0 6 6 12 12 12 6 0 12 -6 12 -12z m117 -260 c4 -13
2 -14 -14 -5 -23 13 -26 20 -6 20 8 0 16 -7 20 -15z m76 -79 c0 -2 -7 -7 -16
-10 -8 -3 -12 -2 -9 4 6 10 25 14 25 6z m80 -92 c0 -9 5 -12 12 -8 7 4 8 3 4
-4 -5 -9 -13 -9 -27 -2 -11 6 -17 15 -14 21 10 14 25 11 25 -7z m157 -106 c-3
-8 -6 -5 -6 6 -1 11 2 17 5 13 3 -3 4 -12 1 -19z m138 -56 c-3 -3 -11 0 -18 7
-9 10 -8 11 6 5 10 -3 15 -9 12 -12z m69 -7 c-4 -8 -11 -15 -16 -15 -6 0 -5 6
2 15 7 8 14 15 16 15 2 0 1 -7 -2 -15z"/>
<path d="M1600 4000 c-9 -6 -10 -10 -3 -10 6 0 15 5 18 10 8 12 4 12 -15 0z"/>
<path d="M813 3942 l-31 -27 25 -1 c17 -2 23 2 19 12 -3 7 2 18 12 23 9 5 15
12 12 14 -3 3 -19 -7 -37 -21z"/>
<path d="M749 3926 c-1 -3 -2 -10 -3 -15 -2 -19 -16 -23 -33 -10 -10 7 -15 10
-11 5 11 -13 -34 -57 -47 -46 -17 14 -34 -8 -29 -37 3 -15 -1 -20 -13 -19 -20
3 -53 -33 -46 -50 2 -7 0 -15 -6 -19 -6 -3 -11 -11 -11 -17 0 -6 9 1 21 16 11
14 17 31 14 38 -4 7 3 2 14 -12 16 -20 21 -21 21 -8 0 9 -7 21 -16 26 -15 8
-15 10 0 15 10 4 15 3 11 -3 -3 -6 -2 -10 4 -10 9 0 20 13 65 76 18 25 20 26
32 9 7 -9 10 -24 7 -33 -3 -10 6 -3 21 13 28 33 32 45 15 45 -8 0 -8 4 0 14 8
10 9 16 1 21 -5 3 -11 4 -11 1z m-9 -46 c0 8 3 11 6 7 3 -3 2 -12 -3 -21 -7
-13 -11 -12 -22 7 -13 20 -13 21 2 8 14 -11 17 -11 17 -1z m-88 -55 c-6 -12
-11 -14 -16 -6 -4 6 -2 11 3 11 6 0 11 5 11 11 0 5 -5 7 -12 3 -7 -5 -8 -3 -3
5 12 20 29 -3 17 -24z"/>
<path d="M516 3738 c3 -5 10 -6 15 -3 13 9 11 12 -6 12 -8 0 -12 -4 -9 -9z"/>
<path d="M1219 3543 c-13 -16 -12 -17 4 -4 16 13 21 21 13 21 -2 0 -10 -8 -17
-17z"/>
<path d="M553 2645 c0 -8 3 -13 5 -10 3 3 12 -1 21 -7 10 -8 9 -4 -3 10 -23
26 -23 26 -23 7z"/>
<path d="M715 4081 c-3 -5 -2 -12 3 -15 5 -3 9 1 9 9 0 17 -3 19 -12 6z"/>
<path d="M776 4073 c-6 -14 -5 -15 5 -6 7 7 10 15 7 18 -3 3 -9 -2 -12 -12z"/>
<path d="M934 4076 c5 -13 2 -17 -9 -12 -8 3 -15 1 -15 -4 0 -12 27 -13 34 -2
2 4 0 14 -6 22 -8 12 -9 11 -4 -4z"/>
<path d="M1025 4080 c-3 -5 -1 -10 4 -10 6 0 11 5 11 10 0 6 -2 10 -4 10 -3 0
-8 -4 -11 -10z"/>
<path d="M1109 4079 c-11 -7 -11 -9 -1 -9 8 0 10 -5 6 -12 -5 -8 -1 -8 12 2
10 8 20 15 22 16 2 1 -3 4 -11 7 -8 3 -20 1 -28 -4z"/>
<path d="M1380 4080 c-9 -6 -10 -10 -3 -10 6 0 15 5 18 10 8 12 4 12 -15 0z"/>
<path d="M1353 4069 c9 -27 -21 -60 -48 -55 -14 3 -28 0 -31 -6 -4 -7 -2 -8 5
-4 6 4 14 0 17 -9 6 -14 11 -12 35 11 26 25 30 26 46 12 20 -17 52 -20 69 -7
7 6 16 3 24 -6 10 -12 16 -13 26 -4 10 8 14 8 14 0 0 -6 8 -3 18 7 16 15 16
18 3 26 -10 6 -16 5 -19 -2 -2 -7 -8 -9 -14 -6 -5 3 -2 14 8 25 16 18 16 19 1
13 -16 -6 -21 -17 -18 -36 0 -5 -5 -8 -13 -8 -9 0 -12 7 -9 19 6 25 -12 35
-30 17 -11 -11 -17 -12 -26 -3 -9 9 -14 9 -20 -2 -7 -10 -12 -8 -26 10 -10 13
-15 17 -12 8z m99 -41 c-20 -20 -59 -17 -79 5 -14 17 -14 19 -1 9 11 -9 18
-10 23 -2 5 8 11 8 20 0 9 -7 16 -6 26 6 9 11 14 13 17 4 2 -6 -1 -17 -6 -22z"/>
<path d="M1589 4063 c-13 -16 -12 -17 4 -4 9 7 17 15 17 17 0 8 -8 3 -21 -13z"/>
<path d="M990 4064 c0 -3 7 -12 15 -20 16 -17 18 -14 9 10 -6 15 -24 23 -24
10z"/>
<path d="M1530 4059 c0 -5 5 -7 10 -4 6 3 10 8 10 11 0 2 -4 4 -10 4 -5 0 -10
-5 -10 -11z"/>
<path d="M848 4053 c-10 -2 -18 -9 -18 -14 0 -6 8 -5 20 1 11 6 20 13 20 15 0
3 -1 4 -2 4 -2 -1 -11 -3 -20 -6z"/>
<path d="M733 4033 c0 -9 4 -10 14 -2 7 6 13 12 13 14 0 1 -6 2 -13 2 -8 0
-14 -6 -14 -14z"/>
<path d="M950 4046 c0 -2 7 -6 15 -10 8 -3 15 -1 15 4 0 6 -7 10 -15 10 -8 0
-15 -2 -15 -4z"/>
<path d="M1550 4046 c0 -2 6 -9 14 -15 11 -9 16 -9 22 0 4 8 3 9 -4 5 -7 -4
-12 -2 -12 3 0 6 -4 11 -10 11 -5 0 -10 -2 -10 -4z"/>
<path d="M1628 4038 c5 -5 16 -8 23 -6 8 3 3 7 -10 11 -17 4 -21 3 -13 -5z"/>
<path d="M755 4020 c-3 -6 1 -7 9 -4 18 7 21 14 7 14 -6 0 -13 -4 -16 -10z"/>
<path d="M1151 3998 c5 -10 11 -18 13 -18 2 0 6 8 8 18 4 12 -1 18 -13 18 -14
0 -15 -4 -8 -18z"/>
<path d="M1204 4009 c-2 -4 0 -10 5 -13 5 -4 12 -2 16 3 3 6 13 7 22 4 10 -4
14 -2 9 5 -7 12 -45 12 -52 1z"/>
<path d="M540 4006 c0 -2 8 -10 18 -17 15 -13 16 -12 3 4 -13 16 -21 21 -21
13z"/>
<path d="M710 4006 c0 -2 7 -7 16 -10 8 -3 12 -2 9 4 -6 10 -25 14 -25 6z"/>
<path d="M1065 4001 c-6 -11 9 -23 19 -14 9 9 7 23 -3 23 -6 0 -12 -4 -16 -9z"/>
<path d="M1706 3983 c-6 -14 -5 -15 5 -6 7 7 10 15 7 18 -3 3 -9 -2 -12 -12z"/>
<path d="M710 3980 c0 -6 7 -10 15 -10 8 0 15 2 15 4 0 2 -7 6 -15 10 -8 3
-15 1 -15 -4z"/>
<path d="M1730 3979 c0 -15 18 -19 23 -6 3 8 -1 14 -9 14 -8 0 -14 -4 -14 -8z"/>
<path d="M1775 3980 c3 -5 8 -10 11 -10 2 0 4 5 4 10 0 6 -5 10 -11 10 -5 0
-7 -4 -4 -10z"/>
<path d="M581 3954 c0 -11 3 -14 6 -6 3 7 2 16 -1 19 -3 4 -6 -2 -5 -13z"/>
<path d="M671 3954 c0 -11 3 -14 6 -6 3 7 2 16 -1 19 -3 4 -6 -2 -5 -13z"/>
<path d="M636 3938 c5 -7 2 -9 -9 -5 -10 4 -14 2 -11 -7 3 -7 11 -13 19 -13 8
0 12 4 9 8 -2 4 1 9 8 11 7 3 5 7 -6 11 -11 5 -15 3 -10 -5z"/>
<path d="M1844 3942 c3 -5 0 -13 -6 -15 -9 -4 -10 -6 -1 -6 17 -1 25 16 12 25
-7 4 -9 3 -5 -4z"/>
<path d="M3323 3942 c-7 -4 -156 -7 -333 -7 -177 0 -326 -3 -332 -6 -6 -4 -8
-14 -5 -23 4 -9 2 -16 -4 -16 -6 0 -8 -4 -4 -9 3 -5 5 -605 5 -1334 l0 -1324
56 -2 c31 -1 60 -4 65 -6 4 -3 11 -1 14 5 5 8 11 7 21 -1 11 -9 14 -9 14 0 0
9 5 9 20 1 11 -6 20 -7 20 -3 0 4 11 8 25 8 14 0 25 -4 25 -10 0 -5 5 -3 10 5
6 9 10 10 10 3 0 -12 44 -12 56 0 4 3 15 2 25 -4 13 -7 19 -6 19 1 0 6 5 8 12
4 16 -10 98 -12 92 -2 -3 4 0 8 5 8 6 0 11 -6 11 -12 0 -9 4 -8 10 2 6 10 10
11 10 3 0 -7 5 -13 11 -13 5 0 8 4 5 9 -3 5 1 11 9 15 8 3 15 10 15 16 0 6 -6
8 -12 4 -10 -5 -10 -4 -1 6 9 10 9 18 1 34 -11 20 -10 20 8 6 18 -15 18 -14 0
14 -10 16 -13 26 -8 22 6 -4 10 2 9 14 -1 11 -5 20 -10 20 -4 0 -5 6 0 13 11
17 10 41 -2 49 -7 5 -7 8 0 8 7 0 10 146 9 420 -1 231 3 423 7 426 5 3 9 1 9
-5 0 -6 9 -8 23 -3 12 4 37 6 55 4 43 -3 48 -3 115 0 31 2 57 -1 57 -5 0 -4 8
-4 18 1 17 9 70 7 79 -2 3 -3 15 -1 27 3 11 5 30 5 41 1 11 -4 32 -4 46 0 15
4 32 4 40 0 7 -5 21 -4 31 1 13 7 18 6 18 -3 0 -9 3 -9 10 2 7 11 10 11 10 2
0 -9 5 -10 19 -3 10 6 21 8 23 5 9 -9 49 -13 43 -4 -6 10 15 8 32 -3 20 -13
54 -17 48 -7 -4 6 3 6 18 1 14 -6 28 -7 31 -4 3 4 6 2 6 -4 0 -6 13 -16 30
-23 16 -7 27 -16 24 -21 -9 -16 3 -10 17 8 9 11 10 14 2 9 -9 -5 -11 -2 -6 9
4 13 8 14 14 4 4 -7 5 -17 2 -23 -4 -5 1 -7 11 -3 11 4 15 3 10 -4 -4 -8 1 -9
17 -4 23 7 23 6 5 -7 -13 -10 -15 -17 -8 -22 6 -4 10 -12 8 -19 -1 -7 -1 -9 1
-4 7 11 33 8 33 -4 0 -5 -6 -7 -12 -4 -7 4 -3 -2 10 -13 26 -24 28 -30 6 -28
-9 0 -18 -5 -20 -12 -1 -7 0 -8 3 -2 2 5 9 10 14 10 6 0 7 -6 3 -12 -5 -8 0
-7 11 2 14 11 19 12 22 2 3 -6 9 -9 15 -6 6 4 6 -1 -1 -13 -6 -11 -7 -24 -3
-28 4 -5 1 -5 -5 -1 -17 9 -50 -8 -34 -18 6 -4 11 -2 11 3 0 15 17 14 17 -1 0
-7 4 -22 8 -33 7 -20 6 -20 -9 -1 -14 17 -16 18 -16 3 0 -9 6 -17 13 -17 8 0
7 -4 -3 -10 -9 -6 -10 -10 -3 -10 6 0 19 10 27 22 17 24 21 40 9 36 -16 -6
-16 8 0 37 14 26 16 27 14 8 -1 -13 -5 -23 -10 -23 -5 0 -4 -6 2 -14 10 -11
10 -20 1 -36 -9 -18 -8 -25 6 -41 9 -10 24 -19 33 -20 11 0 12 -2 3 -6 -7 -3
-24 5 -37 17 -15 14 -25 18 -30 11 -3 -6 -11 -8 -17 -5 -7 5 -8 2 -3 -6 6 -10
4 -12 -11 -6 -15 6 -16 5 -7 -5 10 -10 15 -9 27 0 13 11 20 9 41 -7 25 -20 25
-21 5 -27 -11 -4 -18 -11 -14 -16 3 -5 10 -7 15 -4 5 4 9 1 9 -4 0 -15 -6 -14
-38 5 -24 15 -24 13 6 -15 18 -17 37 -29 41 -26 5 3 12 -2 15 -11 3 -8 11 -12
17 -8 8 4 9 3 5 -4 -4 -8 -18 -5 -41 9 -19 12 -35 16 -35 11 0 -6 9 -14 20
-17 17 -5 18 -10 9 -27 -8 -15 -7 -24 5 -37 15 -16 15 -19 1 -31 -12 -10 -13
-16 -3 -28 10 -13 10 -14 1 -8 -7 4 -13 3 -13 -2 0 -11 30 -26 43 -23 5 1 6
-3 2 -9 -5 -8 -11 -7 -21 1 -11 9 -17 9 -29 -1 -15 -13 -12 -30 6 -30 6 0 7 5
4 10 -3 6 -1 10 5 10 7 0 9 -7 6 -16 -3 -9 -6 -18 -6 -21 0 -3 -8 1 -17 8 -15
12 -16 12 -10 -4 5 -12 3 -16 -5 -11 -7 5 -8 3 -4 -5 5 -7 14 -10 22 -7 11 4
12 1 6 -12 -12 -22 -4 -44 11 -35 7 4 6 -1 -2 -10 -11 -14 -11 -20 -1 -32 7
-8 16 -12 21 -10 9 6 3 -35 -7 -44 -4 -3 -4 2 -1 11 3 9 0 21 -7 28 -11 8 -13
3 -12 -30 1 -45 8 -50 30 -18 9 12 16 17 16 11 0 -7 -4 -15 -10 -18 -23 -14
-30 -43 -13 -56 14 -12 15 -11 9 7 -4 14 -1 26 9 34 9 7 15 8 15 2 0 -6 -5
-12 -11 -14 -9 -3 -9 -10 0 -27 10 -17 10 -26 0 -37 -7 -9 -8 -14 -1 -14 6 0
16 8 21 18 6 10 11 12 11 4 0 -7 4 -11 10 -7 12 7 2 35 -12 32 -18 -4 -19 18
-3 38 16 19 16 19 6 -2 -14 -27 -14 -36 -1 -28 6 3 13 -1 16 -9 3 -9 11 -13
18 -9 6 3 -2 -8 -18 -25 -16 -17 -34 -30 -40 -29 -15 3 -34 29 -32 42 2 5 1 7
-1 3 -2 -4 -12 1 -22 10 -15 15 -15 18 -1 30 10 9 10 11 1 6 -10 -5 -12 -3 -6
6 6 9 4 11 -5 5 -9 -6 -11 -4 -5 6 6 11 5 11 -5 2 -16 -15 -40 -6 -33 13 3 8
0 14 -6 14 -6 0 -10 -3 -9 -7 0 -5 -2 -16 -6 -25 -10 -22 0 -52 14 -43 5 3 10
2 10 -4 0 -5 -5 -12 -10 -14 -6 -3 -5 -4 2 -3 7 2 13 10 13 19 0 9 5 21 11 27
9 9 12 4 13 -17 3 -107 7 -128 20 -125 9 2 11 -3 7 -13 -3 -9 -2 -13 4 -10 6
3 10 1 10 -6 0 -7 3 -10 6 -7 9 10 -16 49 -27 43 -5 -4 -9 3 -9 14 0 27 21 18
43 -17 9 -15 17 -22 17 -15 0 6 -5 15 -10 18 -6 4 -8 10 -5 14 2 5 -7 13 -20
19 -14 7 -25 17 -25 24 0 8 3 9 8 3 7 -10 27 -17 48 -18 7 0 12 -10 12 -21 0
-12 2 -35 5 -53 5 -27 3 -31 -11 -26 -9 3 -14 3 -11 -1 4 -4 16 -8 28 -11 18
-3 20 -1 11 15 -14 27 -12 38 4 17 9 -12 16 -14 21 -8 3 6 11 11 17 11 6 0 3
-10 -8 -22 -10 -12 -13 -18 -6 -14 6 4 12 3 12 -3 0 -5 -6 -12 -12 -14 -7 -3
1 -4 17 -4 17 1 36 10 43 20 7 9 16 15 20 13 4 -2 18 2 32 10 21 12 22 14 5
12 -11 -2 -24 -7 -28 -13 -5 -5 -5 0 -2 13 6 20 4 22 -19 18 -18 -3 -25 -1
-20 7 3 7 -1 4 -9 -6 -13 -16 -15 -16 -21 -2 -4 11 -2 14 6 9 7 -4 8 -3 4 5
-4 6 -12 9 -17 6 -5 -3 -6 2 -3 12 4 13 3 15 -4 5 -7 -11 -10 -11 -16 3 -3 9
-10 13 -16 10 -23 -14 -7 12 21 33 25 20 30 21 35 8 3 -9 10 -13 15 -10 5 3 9
1 9 -4 0 -5 -9 -13 -20 -18 -19 -9 -20 -10 -5 -29 9 -11 13 -14 10 -7 -4 8 1
20 14 28 12 9 18 20 15 26 -4 5 5 2 20 -7 15 -10 24 -20 22 -23 -3 -3 -12 1
-21 8 -9 8 -15 8 -15 2 0 -11 38 -42 52 -42 4 0 5 7 2 15 -4 8 -1 15 6 15 6 0
8 -4 5 -10 -3 -5 -2 -10 4 -10 5 0 11 6 14 13 3 9 7 9 19 -1 13 -10 18 -9 29
4 11 14 10 15 -6 12 -15 -2 -20 4 -22 27 -1 20 1 25 6 16 5 -8 7 -20 4 -27 -3
-9 2 -11 16 -7 25 6 27 -4 4 -29 -9 -10 -11 -18 -5 -18 15 0 42 41 35 53 -3 6
-1 7 5 3 7 -4 12 -2 12 3 0 6 -6 11 -14 11 -20 0 -29 17 -15 26 8 5 9 3 4 -6
-6 -10 -4 -12 8 -7 17 6 30 -15 21 -36 -3 -8 4 -13 17 -14 18 -2 19 0 7 14 -9
12 -10 15 0 9 6 -4 12 -3 12 2 0 6 -6 12 -14 15 -7 3 -16 17 -18 31 -3 14 -1
23 3 20 5 -3 9 -14 9 -25 0 -27 20 -24 21 4 0 21 1 21 9 2 5 -11 9 -17 11 -12
5 21 4 33 -6 40 -5 5 1 5 15 2 21 -6 23 -5 12 6 -7 8 -18 14 -24 14 -6 0 -12
8 -14 19 -2 17 -1 17 19 -2 23 -21 60 -26 54 -8 -2 6 -11 10 -19 8 -21 -3 -43
24 -27 34 8 4 9 3 5 -4 -7 -12 8 -17 29 -12 6 2 18 2 28 2 15 -1 16 2 7 13 -8
10 -8 19 -1 34 18 32 12 38 -10 11 l-21 -25 16 28 c13 21 15 32 6 42 -9 10 -6
15 10 20 11 3 18 11 14 16 -3 6 -16 3 -32 -7 -26 -17 -26 -17 -12 1 14 17 13
17 -10 11 -19 -6 -21 -5 -10 3 8 6 24 8 35 4 18 -5 19 -4 5 12 -9 11 -10 16
-2 11 8 -5 12 -1 13 11 0 15 2 14 9 -4 9 -21 24 -24 48 -10 6 5 12 4 12 -2 0
-5 -4 -12 -9 -16 -6 -3 -8 -14 -6 -25 3 -13 0 -18 -7 -14 -7 5 -8 2 -3 -6 5
-9 4 -11 -3 -6 -8 5 -10 2 -6 -8 3 -9 11 -16 17 -16 6 0 8 -3 5 -6 -4 -3 -16
-1 -27 5 -17 10 -20 9 -15 -4 3 -8 9 -13 13 -11 4 3 13 0 21 -6 13 -8 13 -9
-1 -5 -9 3 -16 -1 -16 -8 0 -8 7 -11 16 -8 11 4 10 0 -4 -11 -11 -10 -14 -14
-7 -11 11 6 11 3 1 -14 -8 -12 -16 -16 -20 -10 -5 8 -9 8 -13 0 -4 -6 -3 -11
1 -11 5 0 9 -9 10 -20 2 -29 -5 -25 -21 13 -13 28 -14 29 -13 7 1 -14 7 -28
12 -32 6 -5 6 -8 -2 -8 -6 0 -10 -9 -8 -20 2 -11 -1 -19 -8 -17 -6 1 -12 -4
-13 -10 -1 -7 -2 -18 -3 -24 0 -5 -6 -7 -11 -4 -6 4 -8 11 -5 16 9 13 -4 31
-17 23 -6 -4 -5 -10 3 -16 10 -6 7 -7 -9 -3 -21 6 -22 5 -14 -12 7 -13 7 -23
-1 -33 -14 -18 -25 -19 -47 -5 -13 8 -13 7 0 -10 12 -15 12 -17 1 -10 -9 5
-12 4 -7 -3 4 -7 -1 -10 -14 -7 -11 2 -18 0 -15 -5 3 -6 -2 -7 -12 -4 -15 5
-16 4 -3 -6 13 -10 13 -11 0 -7 -8 2 -14 9 -13 14 1 5 -11 10 -27 10 -23 0
-27 -3 -19 -13 6 -8 14 -13 17 -12 18 2 35 -3 29 -9 -4 -3 -2 -12 4 -20 7 -8
8 -13 1 -13 -15 0 -33 26 -24 36 4 4 -1 2 -10 -5 -10 -7 -18 -10 -18 -7 0 4
-9 2 -20 -4 -11 -6 -18 -16 -14 -22 4 -6 8 -20 8 -32 1 -12 8 -20 15 -18 9 2
12 -4 8 -19 -4 -16 -3 -19 5 -11 14 14 2 46 -14 36 -8 -5 -9 -2 -3 12 4 10 7
27 7 37 -1 15 2 16 14 6 9 -7 11 -16 5 -23 -6 -7 -4 -18 5 -30 8 -11 14 -15
14 -10 0 6 -5 15 -10 20 -8 8 -6 15 5 24 15 12 16 11 13 -5 -2 -15 4 -20 27
-22 20 -1 25 1 16 6 -8 5 -21 6 -30 3 -14 -5 -14 -4 -2 12 10 12 17 14 25 6 5
-5 17 -10 26 -10 10 1 7 5 -9 14 -20 11 -21 14 -6 19 23 9 27 9 20 -3 -3 -5
-1 -10 5 -10 7 0 9 7 6 16 -4 9 -1 14 6 12 6 -2 12 -12 14 -22 1 -10 5 -21 8
-24 4 -3 5 4 3 16 -2 12 -6 25 -10 28 -11 11 -8 34 4 34 5 0 8 -4 5 -9 -11
-17 18 -30 33 -14 12 13 11 14 -8 8 -22 -7 -22 -6 -6 19 9 14 13 31 9 37 -5 9
-2 10 10 6 10 -4 20 -7 22 -7 2 0 4 -6 4 -14 0 -15 24 -28 34 -19 3 4 6 15 6
25 0 11 4 17 9 14 5 -3 12 1 15 10 3 8 12 12 18 9 7 -4 4 1 -6 9 -12 10 -28
14 -40 10 -20 -6 -20 -5 -5 11 16 16 18 16 45 0 l29 -17 -25 21 c-14 11 -28
21 -32 21 -5 0 -8 5 -8 10 0 14 20 8 42 -13 19 -18 43 -24 33 -7 -3 6 -13 10
-21 10 -22 0 -17 17 8 23 12 4 19 9 16 12 -3 4 -15 2 -27 -4 -17 -9 -20 -8
-18 8 1 15 7 19 27 16 14 -1 30 -3 37 -4 6 0 9 -11 7 -24 -4 -20 -4 -20 5 -2
10 23 5 35 -15 35 -10 0 -9 5 6 20 l21 21 -21 29 c-21 30 -15 41 8 18 17 -17
35 2 21 22 -9 13 -10 12 -5 -2 6 -19 -9 -25 -19 -8 -4 6 -15 8 -25 5 -13 -4
-18 -1 -16 11 3 18 46 41 46 24 0 -5 -8 -11 -17 -13 -16 -4 -16 -5 -1 -6 25
-2 32 18 14 38 -9 10 -13 21 -10 24 4 4 12 -1 19 -10 13 -17 35 -10 35 10 0 7
-4 6 -10 -3 -9 -13 -12 -13 -21 3 -8 14 -14 16 -25 6 -8 -7 -14 -7 -14 -1 0 5
7 15 16 22 22 19 37 50 24 50 -5 0 -10 -7 -10 -16 0 -14 -3 -14 -15 -4 -15 13
-21 35 -7 26 4 -2 14 4 21 16 7 11 8 17 2 13 -11 -6 -13 -1 -13 35 0 36 2 41
13 34 8 -4 7 0 -1 15 -6 12 -15 19 -19 16 -5 -2 -8 7 -8 22 l0 27 17 -22 c10
-12 22 -22 26 -22 4 0 3 5 -3 11 -6 6 -9 17 -7 24 3 7 -8 21 -25 31 -31 19
-39 38 -21 49 6 4 7 11 4 17 -5 7 -1 9 9 5 9 -3 19 -1 23 6 4 7 4 9 -1 5 -12
-11 -35 11 -28 28 3 7 9 11 14 8 5 -3 9 0 9 6 0 7 -8 9 -20 5 -15 -5 -18 -3
-14 9 3 9 11 13 17 9 6 -4 7 -1 2 7 -4 7 -2 16 6 21 11 7 11 9 1 9 -7 0 -15
-7 -18 -15 -4 -8 -10 -12 -16 -9 -14 9 11 34 36 35 17 1 18 2 3 6 -10 3 -24 0
-32 -7 -8 -7 -15 -7 -19 -1 -4 5 3 13 14 16 16 5 18 10 10 20 -6 7 -8 19 -5
27 3 8 -1 21 -10 28 -12 10 -15 10 -15 0 0 -26 -14 1 -15 30 -2 37 -12 48 -28
30 -10 -10 -9 -11 2 -5 9 5 12 4 8 -3 -4 -5 -19 -8 -35 -6 -15 3 -32 5 -39 6
-7 1 -10 5 -7 9 2 5 12 5 22 2 15 -6 16 -5 2 12 -8 10 -10 16 -3 12 8 -5 11 0
10 13 -1 11 -7 18 -13 16 -7 -3 -10 3 -7 15 3 11 0 19 -6 19 -7 0 -9 -4 -6
-10 3 -5 0 -7 -9 -4 -12 5 -9 11 12 29 15 13 29 21 32 18 3 -3 -1 -8 -7 -10
-7 -3 -13 -9 -13 -15 0 -7 5 -6 14 1 15 13 49 4 40 -11 -4 -5 -11 -5 -18 1
-14 11 -26 5 -26 -13 0 -6 5 -4 10 4 8 11 9 8 6 -13 -3 -16 -1 -25 5 -21 12 7
7 -19 -6 -28 -6 -5 -6 -8 2 -8 6 0 14 4 18 10 3 5 12 7 19 4 19 -7 27 21 11
42 -10 14 -10 22 -2 32 5 7 6 12 1 11 -19 -3 -35 1 -30 9 8 13 -24 54 -38 49
-16 -6 -41 8 -42 25 -3 34 -5 39 -14 33 -5 -3 -10 3 -10 14 0 11 5 23 10 26
13 8 13 25 0 25 -6 0 -9 -5 -8 -11 2 -6 -2 -13 -8 -16 -19 -6 -11 30 10 50 10
9 14 17 9 17 -6 0 -16 -7 -23 -15 -7 -8 -17 -15 -23 -15 -6 0 0 11 13 25 14
15 30 23 40 20 8 -3 2 6 -14 19 -16 14 -33 23 -39 19 -6 -3 -7 -1 -3 5 4 6 13
9 21 5 11 -4 14 0 9 13 -8 20 -6 19 16 -10 12 -16 12 -18 1 -11 -10 5 -12 4
-7 -4 4 -6 12 -9 17 -5 5 3 7 9 4 14 -3 5 0 12 6 16 8 4 9 3 5 -4 -4 -7 -2
-12 4 -12 7 0 9 7 6 16 -5 12 -2 15 9 10 10 -4 27 7 47 30 24 27 33 32 40 22
6 -8 7 -5 3 11 -6 18 -4 22 6 15 12 -7 12 -5 0 9 -11 14 -10 21 12 46 14 17
29 27 33 23 5 -4 2 1 -5 10 -12 16 -10 19 10 27 19 8 20 10 6 10 -10 1 -15 6
-12 11 4 7 12 7 24 0 15 -8 18 -5 17 13 -1 12 2 29 8 37 6 8 -2 4 -17 -9 -15
-14 -27 -20 -27 -14 0 5 9 18 20 28 11 10 20 24 20 31 0 7 6 15 13 17 9 4 8 8
-3 16 -13 10 -12 13 4 26 11 8 15 15 9 15 -7 0 -15 -5 -18 -10 -4 -6 -15 -8
-25 -5 -20 6 -36 -10 -20 -20 5 -3 10 -1 10 6 0 8 4 8 15 -1 8 -7 15 -17 15
-22 0 -6 -6 -6 -14 1 -17 14 -24 5 -21 -31 1 -15 -2 -25 -6 -23 -4 3 -6 13 -5
22 2 9 -7 26 -19 37 -11 12 -14 15 -5 9 21 -16 38 -17 23 -2 -14 14 -6 39 13
39 15 0 15 21 -1 32 -6 5 -5 15 3 29 13 20 12 21 -5 15 -17 -6 -17 -5 -1 7 20
15 14 29 -8 20 -8 -3 -14 0 -14 6 0 6 3 10 8 10 32 -5 45 16 15 24 -10 3 -6 4
9 4 22 -1 25 -4 17 -18 -12 -24 -12 -25 10 -26 11 -1 22 5 25 13 3 7 12 11 21
8 8 -3 15 -2 15 4 0 13 -24 10 -44 -7 -13 -11 -16 -11 -16 2 0 8 6 17 13 20 9
3 9 8 -2 21 -11 13 -11 20 -3 28 7 7 12 17 12 22 0 6 -4 5 -9 -3 -5 -8 -15
-16 -23 -17 -7 -1 -21 -5 -30 -9 -11 -4 -18 -3 -18 4 0 6 3 10 8 10 4 -1 14
-1 22 0 12 1 11 5 -5 18 -16 13 -17 15 -2 10 20 -7 21 -6 6 27 -7 14 -15 23
-19 21 -4 -2 -7 2 -7 10 0 8 4 12 7 10 4 -3 8 6 8 20 0 16 -5 22 -12 18 -17
-11 -37 -12 -30 -2 3 5 9 7 14 4 5 -3 11 -1 14 4 3 5 15 7 25 4 10 -3 22 1 26
7 5 9 1 10 -16 5 -21 -7 -22 -6 -11 8 9 11 10 17 2 22 -6 4 -9 12 -7 18 2 7
-2 19 -10 29 -19 21 -23 48 -10 73 5 11 6 17 2 13 -4 -4 -14 0 -22 10 -13 15
-13 15 -4 -5 15 -29 14 -33 -4 -27 -8 4 -15 15 -15 25 0 10 -4 19 -9 19 -10 0
-9 -14 4 -42 4 -10 12 -15 18 -11 5 3 7 1 3 -5 -3 -6 -2 -13 4 -17 6 -4 8 -11
5 -16 -4 -5 0 -9 7 -9 11 0 10 -2 0 -9 -11 -7 -10 -9 3 -15 9 -3 13 -11 10
-16 -4 -6 -2 -17 4 -24 9 -10 7 -15 -5 -20 -9 -4 -19 -4 -22 -1 -3 3 0 5 6 5
7 0 12 5 12 11 0 5 -5 7 -11 3 -8 -5 -8 -1 0 14 8 15 7 21 -3 25 -8 3 -13 14
-12 24 4 27 -15 43 -39 31 -19 -9 -19 -9 -1 6 18 14 18 16 1 32 -17 17 -16 19
5 36 27 22 13 24 -17 3 -19 -13 -21 -13 -19 2 2 9 11 17 20 19 21 3 34 14 17
14 -7 0 -10 4 -7 8 3 5 -1 9 -9 9 -8 0 -12 -3 -10 -7 2 -3 -5 -11 -16 -18 -18
-11 -18 -11 -7 7 9 15 9 23 -1 35 -7 8 -18 13 -26 10 -8 -3 -16 4 -20 17 -6
17 -9 19 -16 8 -6 -9 -9 -10 -9 -2 0 20 20 26 26 8 6 -14 9 -14 16 -3 8 10 9
9 4 -4 -3 -11 -1 -15 8 -12 8 3 17 1 21 -5 3 -6 11 -11 17 -11 6 0 -1 9 -16
21 -15 12 -23 26 -19 32 4 8 1 7 -9 -1 -11 -9 -18 -10 -23 -2 -4 6 -12 10 -18
9 -7 -1 -21 -1 -32 1 -19 1 -19 2 -1 9 16 6 16 9 5 22 -8 8 -14 20 -14 27 0 6
-4 12 -10 13 -25 2 -44 20 -39 37 5 15 4 14 -10 -2 -16 -20 -12 -41 6 -30 6 4
8 3 5 -3 -4 -6 4 -9 19 -7 18 2 24 -2 21 -11 -3 -7 0 -18 6 -24 8 -8 8 -11 -1
-11 -7 0 -12 3 -12 8 0 4 -4 13 -9 21 -8 12 -12 13 -26 1 -14 -11 -16 -11 -13
1 2 8 -4 13 -13 13 -14 -1 -15 4 -8 28 7 27 6 28 -8 16 -14 -11 -16 -11 -10 4
4 12 2 15 -8 11 -8 -3 -12 -9 -9 -14 3 -5 0 -9 -6 -9 -7 0 -9 7 -6 16 4 9 1
23 -5 30 -13 16 -29 18 -29 4 0 -5 3 -9 8 -7 7 2 12 -6 12 -23 0 -5 -4 -10
-10 -10 -5 0 -9 3 -9 8 3 20 -2 23 -18 11 -15 -13 -15 -12 -4 9 7 13 10 28 7
35 -2 7 -5 5 -5 -5 -1 -9 -6 -20 -12 -24 -8 -4 -9 1 -4 17 3 13 3 19 -2 13
-12 -16 -42 -24 -49 -13 -4 6 -12 5 -22 -3 -15 -12 -16 -11 -3 4 7 10 17 16
21 13 10 -6 7 22 -3 30 -4 3 -5 2 -2 -2 9 -12 -29 -32 -42 -21 -9 7 -18 7 -29
-2 -12 -11 -15 -11 -12 0 2 8 -4 14 -12 15 -8 0 -14 8 -14 17 2 18 -28 17 -51
-2 -10 -8 -15 -8 -21 1 -4 7 -3 9 3 6 5 -3 10 0 10 7 0 7 -6 13 -13 13 -7 0
-11 -4 -8 -9 3 -4 -3 -8 -13 -8 -11 0 -25 -6 -32 -12 -7 -7 -12 -8 -11 -3 6
29 0 35 -25 23 -18 -8 -28 -8 -39 1 -11 9 -16 9 -22 0 -5 -8 -3 -9 6 -4 8 5
11 4 6 -3 -4 -6 -13 -9 -21 -6 -8 4 -12 11 -8 18 4 6 -2 4 -12 -4 -14 -11 -19
-12 -22 -2 -3 6 -9 12 -15 12 -6 0 -8 -7 -4 -15 4 -12 2 -13 -13 -6 -12 7 -22
6 -31 -2 -9 -8 -11 -8 -7 -1 8 13 -23 29 -32 17 -3 -4 -14 -9 -25 -11 -13 -2
-16 1 -10 10 6 10 4 10 -9 -1 -12 -9 -17 -10 -17 -2 0 7 -5 9 -10 6 -6 -4 -8
-11 -5 -16 3 -5 -1 -6 -9 -3 -9 3 -13 11 -9 18 4 6 -1 5 -10 -3 -9 -7 -17 -10
-17 -6 0 4 -6 2 -14 -4 -11 -9 -16 -9 -22 0 -5 8 -3 9 6 4 9 -5 11 -4 6 3 -5
9 -13 9 -28 1 -16 -9 -23 -8 -29 2 -7 11 -9 11 -9 -1 0 -13 -1 -13 -10 0 -8
13 -10 12 -10 -3 0 -17 -1 -17 -16 -3 -18 18 -28 21 -19 6 7 -12 -32 -10 -51
2 -6 4 -14 4 -18 1 -11 -12 -70 -11 -85 1 -11 8 -13 8 -7 -1 5 -9 1 -13 -13
-13 -11 0 -23 5 -26 10 -5 8 -11 8 -19 1 -8 -7 -16 -7 -22 -1 -5 5 -14 6 -21
2z m884 -34 c-3 -8 -6 -5 -6 6 -1 11 2 17 5 13 3 -3 4 -12 1 -19z m485 -275
c-6 -2 -10 -9 -7 -14 4 -5 -1 -6 -10 -2 -13 5 -14 7 -3 14 7 5 18 8 23 8 6 0
4 -3 -3 -6z m78 -178 c0 -5 -5 -3 -10 5 -5 8 -10 20 -10 25 0 6 5 3 10 -5 5
-8 10 -19 10 -25z m-854 3 c-4 7 -2 12 6 12 8 0 20 -6 27 -12 11 -10 13 -10 7
0 -4 6 -2 12 3 12 6 0 11 -5 11 -11 0 -8 5 -8 15 1 14 12 19 7 16 -13 -1 -5 3
-6 9 -2 6 3 8 11 5 16 -4 5 -1 9 4 9 6 0 11 -5 11 -11 0 -8 6 -7 17 2 11 10
14 10 9 2 -6 -12 5 -18 27 -14 4 0 7 -3 7 -9 0 -5 3 -9 8 -9 28 5 52 -2 46
-13 -5 -10 -4 -10 6 -1 14 13 50 0 50 -18 0 -6 -7 -3 -16 5 -23 23 -30 20 -9
-4 17 -19 19 -19 39 -3 20 17 20 17 7 0 -12 -16 -12 -20 3 -35 15 -15 18 -15
27 -2 8 11 9 9 4 -9 -5 -17 -4 -22 5 -16 9 5 11 4 6 -4 -4 -6 -2 -18 4 -26 7
-8 9 -15 5 -15 -4 0 -2 -7 5 -15 7 -9 19 -14 26 -11 7 3 16 0 20 -6 4 -7 3 -8
-4 -4 -8 5 -12 -1 -12 -14 0 -14 -4 -19 -12 -14 -7 4 -4 -2 6 -14 14 -16 22
-19 32 -11 9 7 14 6 20 -2 4 -7 3 -9 -4 -5 -6 3 -13 2 -17 -3 -3 -6 -12 -8
-20 -4 -8 3 -15 0 -15 -7 0 -6 5 -8 10 -5 6 3 10 1 10 -5 0 -6 4 -8 10 -5 6 4
7 -1 3 -11 -4 -10 -2 -15 3 -12 5 4 10 -8 10 -25 1 -18 -1 -26 -3 -19 -3 6 -9
10 -13 7 -5 -3 -7 3 -5 15 2 11 1 22 -3 24 -4 3 -8 -11 -8 -29 0 -18 3 -32 6
-30 3 2 12 0 20 -6 12 -7 10 -9 -8 -9 -19 0 -21 -2 -10 -14 7 -8 18 -11 23 -8
6 3 4 -2 -3 -11 -8 -9 -11 -21 -7 -28 6 -8 2 -8 -12 0 -19 10 -20 8 -16 -29 3
-26 1 -40 -7 -40 -6 0 -8 5 -4 12 4 7 3 8 -5 4 -9 -6 -9 -11 0 -22 6 -8 8 -14
3 -14 -5 0 -2 -5 6 -11 13 -9 13 -10 0 -6 -8 2 -14 10 -12 16 1 6 -2 11 -7 11
-5 0 -9 -10 -9 -22 -2 -45 -9 -63 -24 -60 -9 1 -18 -4 -22 -13 -3 -8 -11 -15
-17 -15 -8 0 -7 6 2 18 13 15 12 16 -4 3 -10 -8 -16 -20 -13 -26 8 -21 -15
-35 -37 -24 -15 9 -18 8 -12 -2 6 -9 3 -11 -9 -6 -11 5 -15 3 -10 -5 5 -7 -1
-9 -19 -6 -18 4 -24 1 -20 -9 3 -7 -1 -13 -8 -14 -8 0 -26 -2 -41 -3 -16 -1
-24 3 -21 9 4 5 -4 1 -17 -10 -13 -11 -20 -14 -16 -7 9 15 -10 16 -20 1 -4 -8
-9 -7 -15 2 -7 11 -9 11 -9 -1 0 -13 -1 -13 -10 0 -9 13 -10 13 -10 0 0 -12
-2 -13 -9 -1 -5 7 -14 10 -21 6 -6 -4 -72 -7 -146 -7 -74 1 -226 1 -337 1
l-204 1 1 363 1 362 342 0 c232 -1 340 3 336 10 -4 5 4 1 17 -10 13 -11 20
-14 16 -7z m874 -32 c0 -3 -4 -8 -10 -11 -5 -3 -10 -1 -10 4 0 6 5 11 10 11 6
0 10 -2 10 -4z m-490 -112 c0 -8 -19 -13 -24 -6 -3 5 1 9 9 9 8 0 15 -2 15 -3z
m4 -29 c-4 -8 -11 -12 -16 -9 -6 4 -5 10 3 15 19 12 19 11 13 -6z m520 -3 c3
-5 -1 -9 -9 -9 -8 0 -12 4 -9 9 3 4 7 8 9 8 2 0 6 -4 9 -8z m-489 -62 c-3 -5
-12 -10 -18 -10 -7 0 -6 4 3 10 19 12 23 12 15 0z m534 -24 c10 -12 8 -13 -8
-9 -12 3 -21 9 -21 14 0 14 16 11 29 -5z m-68 -109 c-10 -9 -11 -8 -5 6 3 10
9 15 12 12 3 -3 0 -11 -7 -18z m59 -132 c0 -8 -4 -16 -8 -19 -4 -2 -8 6 -8 19
0 13 4 21 8 19 4 -3 8 -11 8 -19z m-50 -5 c0 -5 -5 -10 -11 -10 -5 0 -7 5 -4
10 3 6 8 10 11 10 2 0 4 -4 4 -10z m-8 -60 c5 0 7 4 4 9 -3 5 0 11 7 14 9 3
13 -2 11 -16 -1 -12 -3 -23 -4 -24 -2 -2 -4 -7 -5 -13 -1 -5 -4 -13 -5 -17 -1
-5 -2 -12 -1 -16 1 -5 -4 -5 -10 -1 -8 5 -10 2 -6 -8 3 -10 -4 -25 -19 -39
-18 -17 -21 -25 -12 -31 10 -6 10 -8 1 -8 -7 0 -12 -4 -10 -8 3 -10 -55 -68
-66 -64 -4 1 -17 -2 -27 -8 -16 -9 -18 -8 -13 6 4 11 3 15 -5 10 -6 -3 -13 -2
-16 3 -7 10 20 9 30 -2 12 -11 33 13 27 31 -4 13 -3 14 5 3 8 -11 11 -11 18 0
4 7 3 14 -4 17 -7 2 -12 8 -12 14 0 7 5 6 14 -1 10 -8 16 -9 21 -1 3 5 2 10
-2 10 -5 0 -9 10 -10 23 -2 20 0 20 13 -5 16 -30 27 -38 18 -13 -4 8 -1 15 4
15 6 0 9 9 7 20 -2 11 0 18 6 15 10 -7 7 23 -5 43 -5 8 -3 12 6 10 7 -2 12 2
11 8 -1 8 6 10 19 6 l21 -5 -21 21 c-12 12 -22 28 -21 35 0 6 5 2 11 -10 6
-13 15 -23 20 -23z m58 0 c0 -5 -5 -10 -11 -10 -5 0 -7 5 -4 10 3 6 8 10 11
10 2 0 4 -4 4 -10z m-560 -4 c0 -3 -4 -8 -10 -11 -5 -3 -10 -1 -10 4 0 6 5 11
10 11 6 0 10 -2 10 -4z m430 -50 c0 -2 -8 -10 -17 -17 -16 -13 -17 -12 -4 4
13 16 21 21 21 13z m11 -19 c-10 -9 -11 -8 -5 6 3 10 9 15 12 12 3 -3 0 -11
-7 -18z m-164 -203 c-3 -3 -12 -4 -19 -1 -8 3 -5 6 6 6 11 1 17 -2 13 -5z m47
-13 c9 -15 -52 -61 -71 -54 -12 5 -14 3 -8 -8 5 -8 4 -11 0 -6 -5 4 -10 14
-11 22 -2 12 2 12 17 5 18 -10 29 3 12 13 -5 2 -2 2 6 0 8 -2 11 2 8 10 -4 10
2 13 21 10 24 -3 24 -2 7 6 -17 8 -17 10 -3 10 9 1 19 -3 22 -8z m-64 -5 c0
-2 -7 -7 -16 -10 -8 -3 -12 -2 -9 4 6 10 25 14 25 6z m46 -82 c-3 -7 -1 -16 5
-20 5 -3 7 -14 4 -25 -4 -11 -3 -19 2 -18 23 4 35 -2 30 -16 -4 -8 -2 -17 4
-20 5 -4 7 -11 3 -16 -3 -6 7 -7 25 -4 24 4 32 1 42 -17 9 -18 9 -21 -1 -11
-14 13 -40 6 -56 -15 -6 -8 -17 -12 -25 -9 -10 4 -9 6 4 6 9 1 17 6 17 12 0 5
-4 7 -10 4 -5 -3 -7 0 -4 9 4 11 0 14 -15 11 -11 -2 -23 1 -26 6 -4 5 -11 7
-16 3 -5 -3 -6 -10 -3 -16 4 -7 2 -8 -4 -4 -9 5 -8 12 0 26 11 17 14 17 21 5
4 -9 13 -13 18 -9 6 3 1 14 -11 24 -15 13 -17 20 -8 24 7 3 3 4 -9 2 -20 -4
-21 -2 -12 16 11 20 0 37 -23 38 -5 0 -8 5 -8 11 0 5 4 8 9 5 5 -3 11 1 15 9
3 9 12 12 21 9 9 -4 14 -13 11 -20z m-80 1 c-3 -23 -12 -26 -13 -5 -1 11 2 20
7 20 4 0 7 -7 6 -15z m28 -31 c9 -3 16 -11 16 -16 0 -7 -5 -6 -13 1 -8 6 -17
8 -20 4 -4 -3 -7 -1 -7 5 0 14 2 14 24 6z m21 -62 c-3 -3 -11 0 -18 7 -9 10
-8 11 6 5 10 -3 15 -9 12 -12z m55 -107 c0 -5 -5 -3 -10 5 -5 8 -10 20 -10 25
0 6 5 3 10 -5 5 -8 10 -19 10 -25z m132 -24 c2 -7 -5 -15 -15 -16 -9 -2 -15 1
-12 5 3 5 0 12 -6 16 -8 4 -7 9 2 15 15 9 26 2 31 -20z m-82 -22 c0 -4 -5 -11
-12 -15 -7 -4 -8 -3 -4 4 4 6 2 22 -4 34 -11 22 -10 22 4 4 9 -11 16 -23 16
-27z m-639 -3 c5 3 9 0 9 -6 0 -6 5 -8 12 -4 7 4 8 3 4 -4 -9 -15 -46 3 -45
21 0 9 2 9 6 -1 2 -6 9 -10 14 -6z m726 -57 c1 -14 -3 -19 -13 -15 -8 3 1 -11
21 -31 39 -41 42 -48 19 -57 -13 -5 -14 -9 -4 -21 7 -8 9 -15 5 -15 -4 0 -2
-7 6 -16 10 -12 10 -17 0 -23 -10 -7 -10 -9 2 -14 9 -3 13 -17 12 -39 -4 -44
-3 -42 -22 -27 -15 13 -15 11 1 -19 9 -18 28 -38 41 -44 14 -6 25 -16 25 -21
0 -5 -7 -4 -15 3 -15 12 -17 10 -19 -19 -1 -8 -9 -15 -19 -17 -22 -3 -22 4 0
29 17 18 17 20 -2 34 -11 8 -19 18 -18 23 1 4 -4 10 -11 13 -9 4 -13 0 -12
-11 2 -13 12 -22 45 -39 1 -1 0 -7 -4 -13 -5 -8 -11 -5 -20 7 -13 17 -14 17
-12 -4 0 -12 4 -20 7 -18 3 2 6 -5 6 -15 0 -10 -4 -17 -8 -14 -4 2 -11 -4 -17
-13 -9 -16 -10 -16 -8 4 0 12 5 19 9 17 4 -3 8 -1 8 4 0 10 -38 25 -54 23 -5
-1 -4 5 4 13 14 18 25 22 15 6 -3 -5 -4 -10 -1 -10 2 0 13 -3 23 -7 16 -6 16
-5 4 10 -9 12 -10 17 -2 17 7 0 10 4 6 10 -3 5 -13 7 -23 4 -10 -4 -13 -2 -7
3 16 13 17 34 3 51 -10 12 -10 14 0 8 6 -4 12 -3 12 2 0 6 11 9 24 8 13 0 22
-5 18 -11 -3 -5 -2 -7 2 -3 10 9 8 23 -4 24 -5 1 -12 3 -15 4 -3 1 -8 3 -12 4
-15 3 -48 25 -37 26 5 0 15 -5 21 -11 7 -7 13 -7 17 -1 3 6 -3 14 -14 17 -17
5 -19 9 -9 21 9 11 9 18 1 26 -7 7 -12 17 -12 23 0 5 5 2 11 -7 5 -10 14 -18
20 -18 5 0 2 11 -7 25 -8 13 -13 29 -9 36 5 8 1 9 -14 4 -14 -4 -21 -2 -21 6
0 7 3 9 7 6 8 -8 33 25 27 35 -3 5 -10 8 -15 8 -6 0 -7 -4 -4 -10 3 -5 1 -10
-4 -10 -19 0 -12 18 17 39 15 11 27 21 27 21 1 0 1 -9 2 -21z m-64 -14 c-7
-21 -12 -19 -10 4 0 11 5 18 9 15 4 -3 5 -11 1 -19z m-533 -5 c0 -4 -7 -7 -15
-6 -23 3 -26 12 -5 13 11 1 20 -2 20 -7z m29 -36 c4 3 8 -5 8 -17 2 -20 1 -20
-8 -4 -6 9 -14 15 -20 12 -5 -4 -6 2 -2 11 4 11 8 13 11 6 2 -7 7 -10 11 -8z
m611 6 c0 -5 -4 -10 -10 -10 -5 0 -10 5 -10 10 0 6 5 10 10 10 6 0 10 -4 10
-10z m-566 -38 c3 -5 -1 -9 -9 -9 -8 0 -12 4 -9 9 3 4 7 8 9 8 2 0 6 -4 9 -8z
m440 -8 c3 -8 2 -12 -4 -9 -6 3 -10 10 -10 16 0 14 7 11 14 -7z m24 -9 c-3 -3
-9 2 -12 12 -6 14 -5 15 5 6 7 -7 10 -15 7 -18z m-22 -30 c-1 -8 -5 -17 -8
-21 -5 -4 -4 16 1 34 3 9 9 -1 7 -13z m44 -15 c0 -5 -8 -10 -17 -10 -15 0 -16
2 -3 10 19 12 20 12 20 0z m-45 -70 c10 -11 16 -20 13 -20 -3 0 -13 9 -23 20
-10 11 -16 20 -13 20 3 0 13 -9 23 -20z m-370 -10 c-3 -5 -12 -10 -18 -10 -7
0 -6 4 3 10 19 12 23 12 15 0z m425 6 c0 -2 -7 -7 -16 -10 -8 -3 -12 -2 -9 4
6 10 25 14 25 6z m-12 -51 c-3 -3 -9 2 -12 12 -6 14 -5 15 5 6 7 -7 10 -15 7
-18z m-18 1 c0 -2 -8 -10 -17 -17 -16 -13 -17 -12 -4 4 13 16 21 21 21 13z m1
-39 c-10 -9 -11 -8 -5 6 3 10 9 15 12 12 3 -3 0 -11 -7 -18z m-428 -2 c-3 -9
-8 -14 -10 -11 -3 3 -2 9 2 15 9 16 15 13 8 -4z m411 -37 c-3 -4 -9 -8 -15 -8
-5 0 -9 4 -9 8 0 5 7 9 15 9 8 0 12 -4 9 -9z m-14 -34 c0 -8 -19 -13 -24 -6
-3 5 1 9 9 9 8 0 15 -2 15 -3z m30 2 c0 -3 -4 -8 -10 -11 -5 -3 -10 -1 -10 4
0 6 5 11 10 11 6 0 10 -2 10 -4z m113 -20 c-4 -6 2 -4 12 4 17 14 18 13 11 -5
-12 -31 -14 -62 -5 -77 5 -8 1 -16 -12 -23 -19 -11 -19 -11 -1 -31 16 -16 17
-22 5 -32 -7 -7 -13 -10 -13 -6 0 3 -6 2 -13 -4 -15 -13 -31 -4 -40 20 -4 12
-13 16 -24 12 -11 -4 -14 -2 -7 3 6 4 10 33 10 63 -1 39 3 54 12 53 6 -2 12 2
12 8 0 17 32 38 47 32 7 -3 10 -10 6 -17z m-89 -20 c-3 -9 -10 -13 -15 -10 -5
3 -3 11 4 19 15 16 19 13 11 -9z m-451 -1 c-3 -9 -8 -14 -10 -11 -3 3 -2 9 2
15 9 16 15 13 8 -4z m411 -7 c-2 -3 -13 -6 -24 -5 -24 2 -18 13 9 13 11 0 18
-4 15 -8z m33 -58 c0 -16 -2 -28 -5 -25 -8 8 -11 55 -3 55 4 0 8 -13 8 -30z
m-420 -7 c0 -8 -4 -10 -12 -3 -7 5 -16 6 -20 2 -5 -4 -5 -2 -2 4 9 15 34 13
34 -3z m398 -23 c-3 -4 0 -10 7 -12 8 -3 7 -6 -3 -10 -11 -4 -15 1 -15 17 0
13 4 21 8 19 5 -3 6 -9 3 -14z m30 -48 c-3 -3 -11 0 -18 7 -9 10 -8 11 6 5 10
-3 15 -9 12 -12z m-47 -13 c9 -12 9 -16 -1 -16 -7 0 -14 9 -14 20 -1 11 -1 18
0 16 2 -2 8 -11 15 -20z m-392 -11 c4 -7 3 -8 -4 -4 -7 4 -12 2 -12 -5 0 -7
-3 -10 -6 -6 -6 5 3 27 11 27 2 0 7 -5 11 -12z m54 2 c0 -5 -5 -10 -11 -10 -5
0 -7 5 -4 10 3 6 8 10 11 10 2 0 4 -4 4 -10z m497 -37 c-8 -7 -37 9 -31 19 3
5 12 4 20 -3 8 -6 13 -14 11 -16z m-557 -2 c0 -5 -7 -11 -14 -14 -10 -4 -13
-1 -9 9 6 15 23 19 23 5z m60 5 c0 -3 -4 -8 -10 -11 -5 -3 -10 -1 -10 4 0 6 5
11 10 11 6 0 10 -2 10 -4z m378 -44 c2 -7 -1 -12 -8 -12 -6 0 -8 5 -4 12 5 8
2 9 -10 5 -11 -4 -15 -3 -11 4 8 12 27 7 33 -9z m-414 -24 c-3 -4 -9 -8 -15
-8 -5 0 -9 4 -9 8 0 5 7 9 15 9 8 0 12 -4 9 -9z m529 -21 c17 -26 13 -38 -19
-55 -28 -15 -36 -5 -18 22 8 13 11 26 7 29 -3 4 0 7 8 7 11 0 11 2 -1 10 -8 5
-10 10 -4 10 7 0 19 -10 27 -23z m-136 -23 c-4 -15 -5 -14 -6 5 -1 24 -1 24
-23 5 l-23 -19 19 23 c21 25 41 16 33 -14z m-373 -12 c3 -5 -1 -9 -9 -9 -8 0
-15 4 -15 9 0 4 4 8 9 8 6 0 12 -4 15 -8z m287 -29 c13 -16 12 -17 -3 -4 -17
13 -22 21 -14 21 2 0 10 -8 17 -17z m-256 -33 c1 -10 -2 -17 -6 -14 -4 2 -7
13 -6 24 2 23 10 17 12 -10z m-155 5 c0 -1 -7 -8 -15 -15 -13 -10 -15 -9 -15
8 0 15 5 20 15 16 8 -4 15 -7 15 -9z m440 -5 c0 -5 -4 -10 -10 -10 -5 0 -10 5
-10 10 0 6 5 10 10 10 6 0 10 -4 10 -10z m-386 -56 c18 -26 18 -26 -2 -15 -11
6 -22 17 -26 26 -9 23 7 17 28 -11z m191 17 c-9 -8 -36 -10 -30 -2 2 4 11 8
20 8 8 0 13 -3 10 -6z m58 -46 c-3 -9 -8 -14 -10 -11 -3 3 -2 9 2 15 9 16 15
13 8 -4z m233 6 c8 7 17 9 21 5 4 -3 -1 -12 -9 -19 -9 -6 -18 -21 -20 -32 -4
-19 -4 -19 -16 2 -7 12 -9 30 -5 39 4 12 8 14 11 6 3 -10 7 -10 18 -1z m-51
-11 c3 -6 -1 -7 -9 -4 -18 7 -21 14 -7 14 6 0 13 -4 16 -10z m-365 -31 c0 8 8
4 19 -10 13 -16 16 -27 10 -34 -11 -11 -49 27 -49 49 0 6 5 4 10 -4 8 -12 10
-12 10 -1z m331 -16 c-12 -20 -14 -14 -5 12 4 9 9 14 11 11 3 -2 0 -13 -6 -23z
m-36 -16 c-16 -25 -59 -50 -69 -40 -6 6 33 38 46 38 4 0 13 6 20 13 19 19 20
14 3 -11z m-196 -28 c-15 -28 -46 -42 -53 -24 -6 16 24 42 48 42 11 0 13 -5 5
-18z"/>
<path d="M4300 3040 c8 -5 20 -10 25 -10 6 0 3 5 -5 10 -8 5 -19 10 -25 10 -5
0 -3 -5 5 -10z"/>
<path d="M4242 2871 c-11 -7 -11 -9 0 -14 9 -3 15 1 15 9 0 8 -1 14 -1 14 -1
0 -7 -4 -14 -9z"/>
<path d="M4173 2805 c0 -8 4 -12 9 -9 5 3 6 10 3 15 -9 13 -12 11 -12 -6z"/>
<path d="M4785 2852 c-5 -4 -11 -14 -13 -22 -3 -11 2 -10 17 4 12 11 21 21 21
23 0 5 -15 3 -25 -5z"/>
<path d="M4769 2793 c-13 -16 -12 -17 4 -4 16 13 21 21 13 21 -2 0 -10 -8 -17
-17z"/>
<path d="M4712 2710 c-31 -41 -28 -48 4 -10 15 17 24 33 22 35 -2 3 -14 -9
-26 -25z"/>
<path d="M4584 2522 c4 -7 2 -12 -5 -12 -7 0 -5 -6 6 -13 11 -9 15 -19 10 -28
-6 -11 -5 -12 5 -2 10 9 10 15 2 26 -7 8 -9 16 -6 19 3 3 0 9 -7 14 -8 4 -10
3 -5 -4z"/>
<path d="M4616 2441 c-3 -5 1 -14 9 -21 8 -7 12 -17 8 -23 -3 -6 -1 -7 6 -3 8
6 9 12 2 20 -6 7 -8 15 -5 18 3 3 1 9 -5 12 -5 4 -12 2 -15 -3z"/>
<path d="M4745 2161 c-3 -5 -1 -12 4 -16 6 -3 8 -12 4 -20 -3 -8 1 -15 8 -15
7 0 9 -3 6 -7 -4 -3 -2 -12 3 -18 7 -9 6 -16 -5 -25 -8 -7 -15 -18 -15 -24 0
-6 5 -4 10 4 8 13 10 13 11 -2 3 -34 4 -38 12 -38 4 0 12 0 19 0 6 0 4 6 -7
13 -13 10 -15 16 -6 21 9 6 9 11 0 22 -6 8 -8 14 -4 14 4 0 2 6 -4 14 -9 10
-8 16 4 26 13 10 12 15 -3 36 -18 25 -28 29 -37 15z m41 -38 c-7 -7 -21 -4
-21 5 0 4 -4 14 -9 22 -6 9 -1 7 12 -4 12 -11 20 -21 18 -23z"/>
<path d="M4756 1961 c-3 -5 1 -11 9 -14 9 -4 12 -1 8 9 -6 16 -10 17 -17 5z"/>
<path d="M4790 1805 c-7 -8 -9 -15 -4 -15 5 0 3 -4 -5 -9 -11 -7 -9 -13 8 -30
12 -12 16 -21 9 -21 -10 0 -9 -3 1 -9 9 -6 10 -10 2 -14 -7 -3 -7 -4 1 -2 7 1
12 8 11 14 -2 6 3 11 10 11 6 1 3 6 -8 13 -22 13 -26 30 -11 44 5 5 6 3 2 -4
-5 -9 -2 -11 10 -6 15 5 15 7 0 15 -9 5 -14 13 -11 19 10 14 -1 11 -15 -6z"/>
<path d="M4750 1768 c0 -10 5 -18 11 -18 8 0 8 -5 -1 -15 -10 -12 -10 -18 0
-30 10 -12 10 -15 0 -15 -10 0 -10 -3 0 -15 7 -8 17 -12 23 -8 6 4 8 0 4 -10
-8 -20 9 -32 20 -15 14 23 12 38 -7 48 -11 6 -17 18 -15 28 2 10 -5 29 -16 43
-15 19 -19 21 -19 7z m23 -43 c-3 -9 -8 -14 -10 -11 -3 3 -2 9 2 15 9 16 15
13 8 -4z m27 -45 c12 -7 10 -9 -8 -7 -12 0 -22 5 -22 9 0 11 12 10 30 -2z"/>
<path d="M4810 1760 c0 -5 5 -10 10 -10 6 0 10 5 10 10 0 6 -4 10 -10 10 -5 0
-10 -4 -10 -10z"/>
<path d="M4816 1462 l-19 -27 24 22 c12 12 21 24 18 27 -2 2 -13 -8 -23 -22z"/>
<path d="M4399 1213 c-13 -16 -12 -17 4 -4 9 7 17 15 17 17 0 8 -8 3 -21 -13z"/>
<path d="M515 3929 c-4 -6 -5 -12 -2 -15 2 -3 7 2 10 11 7 17 1 20 -8 4z"/>
<path d="M365 3920 c-3 -6 1 -7 9 -4 18 7 21 14 7 14 -6 0 -13 -4 -16 -10z"/>
<path d="M476 3921 c-3 -5 2 -15 12 -22 15 -12 16 -12 5 2 -7 9 -10 19 -6 22
3 4 4 7 0 7 -3 0 -8 -4 -11 -9z"/>
<path d="M4233 3916 c-3 -5 -1 -6 5 -2 6 3 13 2 17 -4 4 -6 11 -8 16 -4 5 3
18 0 27 -8 15 -11 15 -11 5 3 -7 9 -11 18 -9 20 3 2 -9 4 -25 4 -17 1 -33 -3
-36 -9z"/>
<path d="M533 3905 c0 -8 4 -12 9 -9 5 3 6 10 3 15 -9 13 -12 11 -12 -6z"/>
<path d="M459 3873 c-13 -16 -12 -17 4 -4 16 13 21 21 13 21 -2 0 -10 -8 -17
-17z"/>
<path d="M4355 3880 c-3 -6 1 -7 9 -4 18 7 21 14 7 14 -6 0 -13 -4 -16 -10z"/>
<path d="M515 3840 c-3 -5 -2 -10 4 -10 5 0 13 5 16 10 3 6 2 10 -4 10 -5 0
-13 -4 -16 -10z"/>
<path d="M433 3808 c1 -15 6 -23 11 -18 4 4 4 16 -2 26 -9 16 -10 14 -9 -8z"/>
<path d="M344 3802 c4 -3 14 -7 22 -8 9 -1 13 0 10 4 -4 3 -14 7 -22 8 -9 1
-13 0 -10 -4z"/>
<path d="M395 3800 c3 -5 8 -10 11 -10 2 0 4 5 4 10 0 6 -5 10 -11 10 -5 0 -7
-4 -4 -10z"/>
<path d="M377 3767 c-3 -8 1 -14 8 -14 7 0 11 6 8 14 -3 7 -6 13 -8 13 -2 0
-5 -6 -8 -13z"/>
<path d="M307 3759 c7 -7 15 -10 18 -7 3 3 -2 9 -12 12 -14 6 -15 5 -6 -5z"/>
<path d="M374 3722 c2 -9 -2 -21 -8 -25 -7 -6 -6 -7 4 -4 8 2 14 10 13 16 -4
15 14 14 20 -1 4 -10 6 -10 6 -1 1 7 -8 17 -18 23 -16 8 -19 7 -17 -8z"/>
<path d="M4656 3718 c3 -5 10 -6 15 -3 13 9 11 12 -6 12 -8 0 -12 -4 -9 -9z"/>
<path d="M273 3685 c0 -8 4 -12 9 -9 5 3 6 10 3 15 -9 13 -12 11 -12 -6z"/>
<path d="M226 3682 c-3 -5 1 -9 9 -9 8 0 12 4 9 9 -3 4 -7 8 -9 8 -2 0 -6 -4
-9 -8z"/>
<path d="M330 3682 c0 -5 7 -9 15 -9 8 0 12 4 9 9 -3 4 -9 8 -15 8 -5 0 -9 -4
-9 -8z"/>
<path d="M310 3630 c-8 -5 -10 -10 -5 -10 6 0 17 5 25 10 8 5 11 10 5 10 -5 0
-17 -5 -25 -10z"/>
<path d="M277 3609 c4 -13 8 -18 11 -10 2 7 -1 18 -6 23 -8 8 -9 4 -5 -13z"/>
<path d="M234 3602 c4 -3 14 -7 22 -8 9 -1 13 0 10 4 -4 3 -14 7 -22 8 -9 1
-13 0 -10 -4z"/>
<path d="M318 3603 c7 -3 16 -2 19 1 4 3 -2 6 -13 5 -11 0 -14 -3 -6 -6z"/>
<path d="M255 3569 c-4 -6 -5 -12 -2 -15 2 -3 7 2 10 11 7 17 1 20 -8 4z"/>
<path d="M420 3559 c-7 -11 -9 -23 -6 -26 2 -3 -9 -23 -25 -46 -20 -27 -26
-44 -19 -51 5 -5 11 -8 13 -5 1 2 15 20 29 40 20 27 24 39 16 53 -7 13 -5 22
8 37 9 10 12 19 6 19 -6 0 -16 -9 -22 -21z m10 -53 c0 -2 -7 -7 -16 -10 -8 -3
-12 -2 -9 4 6 10 25 14 25 6z"/>
<path d="M246 3519 c3 -5 9 -7 14 -4 5 3 11 1 15 -5 3 -5 12 -10 18 -10 7 0 3
6 -8 12 -25 15 -47 19 -39 7z"/>
<path d="M1025 3520 c-3 -5 1 -10 9 -10 8 0 18 5 21 10 3 6 -1 10 -9 10 -8 0
-18 -4 -21 -10z"/>
<path d="M1270 3526 c0 -2 7 -7 16 -10 8 -3 12 -2 9 4 -6 10 -25 14 -25 6z"/>
<path d="M1183 3509 c9 -6 14 -15 11 -21 -4 -7 -2 -8 5 -4 14 9 -3 36 -23 36
-6 0 -3 -5 7 -11z"/>
<path d="M216 3502 c-3 -5 1 -9 9 -9 8 0 12 4 9 9 -3 4 -7 8 -9 8 -2 0 -6 -4
-9 -8z"/>
<path d="M4825 3500 c-3 -6 1 -7 9 -4 18 7 21 14 7 14 -6 0 -13 -4 -16 -10z"/>
<path d="M976 3483 c-4 -5 -13 -8 -19 -8 -14 0 -18 -37 -6 -56 6 -11 9 -10 15
4 3 9 11 14 18 10 6 -4 5 1 -3 10 -11 14 -11 20 -1 32 13 15 9 21 -4 8z m-11
-32 c3 -5 2 -12 -3 -15 -5 -3 -9 1 -9 9 0 17 3 19 12 6z"/>
<path d="M1130 3479 c0 -5 5 -7 10 -4 6 3 10 8 10 11 0 2 -4 4 -10 4 -5 0 -10
-5 -10 -11z"/>
<path d="M235 3469 c-4 -6 -5 -12 -2 -15 2 -3 7 2 10 11 7 17 1 20 -8 4z"/>
<path d="M256 3463 c-6 -14 -5 -15 5 -6 7 7 10 15 7 18 -3 3 -9 -2 -12 -12z"/>
<path d="M1035 3440 c-3 -5 -1 -10 4 -10 6 0 11 5 11 10 0 6 -2 10 -4 10 -3 0
-8 -4 -11 -10z"/>
<path d="M4850 3436 c0 -8 4 -17 9 -20 5 -4 7 3 4 14 -6 23 -13 26 -13 6z"/>
<path d="M965 3399 c-3 -4 2 -6 10 -5 21 3 28 13 10 13 -9 0 -18 -4 -20 -8z"/>
<path d="M867 3393 c-13 -13 -7 -22 11 -16 11 4 8 -2 -8 -15 -24 -20 -24 -21
-2 -15 13 3 22 1 22 -6 0 -6 5 -11 11 -11 8 0 8 4 -1 15 -6 8 -9 18 -6 23 7
12 -18 35 -27 25z"/>
<path d="M234 3381 c3 -5 -1 -14 -9 -21 -8 -7 -15 -17 -15 -23 0 -5 9 2 20 16
23 28 25 37 9 37 -5 0 -8 -4 -5 -9z"/>
<path d="M910 3360 c0 -5 5 -10 11 -10 5 0 7 5 4 10 -3 6 -8 10 -11 10 -2 0
-4 -4 -4 -10z"/>
<path d="M4865 3360 c-4 -6 -10 -8 -15 -5 -5 3 -12 0 -16 -6 -4 -8 -3 -9 4 -5
16 9 15 -7 0 -22 -9 -9 -9 -12 1 -12 7 0 10 -4 7 -8 -2 -4 -1 -14 5 -22 6 -11
9 -12 9 -2 0 7 5 10 10 7 15 -10 12 2 -6 20 -21 20 -12 30 15 16 15 -8 22 -8
27 1 4 7 4 10 -1 6 -4 -4 -16 -3 -27 3 -15 8 -17 13 -7 25 6 8 9 14 6 14 -3 0
-9 -5 -12 -10z"/>
<path d="M333 3335 c0 -8 4 -12 9 -9 5 3 6 10 3 15 -9 13 -12 11 -12 -6z"/>
<path d="M180 3326 c0 -2 8 -10 18 -17 15 -13 16 -12 3 4 -13 16 -21 21 -21
13z"/>
<path d="M238 3323 c7 -3 16 -2 19 1 4 3 -2 6 -13 5 -11 0 -14 -3 -6 -6z"/>
<path d="M235 3280 c3 -5 8 -10 11 -10 2 0 4 5 4 10 0 6 -5 10 -11 10 -5 0 -7
-4 -4 -10z"/>
<path d="M876 3274 c-8 -22 -8 -24 6 -24 6 0 8 3 5 7 -4 3 -2 12 4 20 7 8 8
13 1 13 -5 0 -13 -7 -16 -16z"/>
<path d="M4895 3271 c-3 -5 -2 -12 3 -15 5 -3 9 1 9 9 0 17 -3 19 -12 6z"/>
<path d="M4861 3256 c-7 -8 -8 -17 -3 -20 6 -3 12 3 15 14 6 24 4 25 -12 6z"/>
<path d="M180 3246 c0 -2 8 -10 18 -17 15 -13 16 -12 3 4 -13 16 -21 21 -21
13z"/>
<path d="M235 3240 c3 -6 1 -10 -6 -10 -7 0 -10 -3 -6 -6 3 -3 13 -2 22 4 16
8 16 9 1 15 -10 4 -15 3 -11 -3z"/>
<path d="M275 3240 c-3 -5 -1 -10 4 -10 6 0 11 5 11 10 0 6 -2 10 -4 10 -3 0
-8 -4 -11 -10z"/>
<path d="M4895 3219 c-8 -12 0 -22 20 -25 8 -1 13 2 9 7 -3 5 -10 6 -16 3 -7
-5 -9 -1 -5 9 7 19 2 23 -8 6z"/>
<path d="M220 3195 c-11 -13 -10 -14 4 -9 9 3 16 10 16 15 0 13 -6 11 -20 -6z"/>
<path d="M880 3206 c0 -2 8 -10 18 -17 15 -13 16 -12 3 4 -13 16 -21 21 -21
13z"/>
<path d="M260 3177 c9 -7 15 -18 14 -24 -1 -7 -2 -21 -3 -30 -1 -16 -3 -16
-12 -3 -9 12 -9 11 -3 -5 9 -25 9 -45 -1 -67 -4 -11 -3 -18 4 -18 6 0 10 3 10
8 -3 20 2 32 13 26 7 -4 8 -3 4 4 -4 7 -3 12 3 12 18 0 23 -20 7 -26 -9 -3
-14 -10 -11 -14 3 -5 -3 -13 -12 -19 -11 -6 -13 -11 -5 -11 8 0 10 -5 6 -12
-5 -9 -2 -8 9 1 10 8 21 10 25 6 4 -4 1 -10 -6 -12 -7 -3 2 -15 23 -29 20 -13
37 -24 38 -24 1 0 3 11 3 25 2 28 -5 31 -25 13 -11 -10 -12 -10 -7 -1 5 9 1
11 -11 7 -15 -5 -16 -4 -3 5 13 10 13 12 0 21 -12 7 -10 9 7 8 13 -1 19 -7 16
-15 -4 -9 0 -11 11 -7 16 6 16 8 1 24 -9 10 -17 24 -19 32 -1 7 -5 18 -9 25
-5 7 1 17 14 24 22 11 21 11 -10 31 -18 12 -30 26 -27 34 3 8 0 11 -8 8 -8 -3
-17 -1 -21 5 -3 6 -12 11 -18 11 -8 -1 -6 -5 3 -13z m65 -77 c-11 -13 -12 -19
-3 -28 7 -7 9 -12 5 -12 -4 0 -3 -10 4 -21 7 -15 8 -19 0 -15 -6 4 -20 2 -32
-5 l-22 -11 21 29 c22 31 15 53 -16 53 -10 0 -12 6 -7 18 5 9 8 24 9 33 0 14
4 14 28 -4 25 -18 26 -22 13 -37z"/>
<path d="M297 3117 c-9 -23 8 -30 24 -10 8 9 9 14 2 10 -6 -4 -13 -2 -15 5 -3
8 -7 6 -11 -5z"/>
<path d="M180 3126 c0 -2 8 -10 18 -17 15 -13 16 -12 3 4 -13 16 -21 21 -21
13z"/>
<path d="M216 3118 c3 -5 10 -6 15 -3 13 9 11 12 -6 12 -8 0 -12 -4 -9 -9z"/>
<path d="M4859 3126 c-1 -3 -2 -9 -3 -13 -1 -5 -5 -14 -10 -21 -4 -7 -3 -18 2
-25 5 -7 8 -20 7 -30 -2 -9 1 -15 6 -11 5 3 6 10 3 16 -5 8 -1 9 11 4 14 -5
16 -4 6 7 -9 11 -8 17 4 27 8 7 15 17 15 23 0 6 -7 1 -16 -11 -21 -30 -39 -28
-19 2 11 16 13 26 6 31 -6 3 -12 4 -12 1z"/>
<path d="M4910 3100 c0 -5 5 -10 11 -10 5 0 7 5 4 10 -3 6 -8 10 -11 10 -2 0
-4 -4 -4 -10z"/>
<path d="M865 3080 c-3 -5 5 -15 19 -21 14 -7 23 -15 21 -19 -3 -4 4 -15 15
-25 11 -10 20 -14 20 -10 0 5 11 -2 25 -15 14 -13 32 -25 40 -27 8 -2 22 -4
31 -6 8 -2 19 -8 22 -13 9 -12 42 -14 42 -3 0 5 -9 9 -21 9 -11 0 -18 4 -15 8
2 4 -6 9 -20 10 -43 3 -50 5 -62 19 -7 7 -10 13 -6 13 3 0 1 7 -6 15 -9 11
-16 12 -25 5 -9 -8 -15 -8 -20 0 -3 5 -1 10 6 10 7 0 4 6 -6 14 -17 12 -18 16
-5 32 14 18 13 18 -8 0 -19 -17 -22 -17 -22 -3 0 19 -15 23 -25 7z"/>
<path d="M160 3060 c-12 -7 -10 -9 7 -7 12 0 19 5 17 9 -6 10 -6 10 -24 -2z"/>
<path d="M230 3006 c0 -2 7 -7 16 -10 8 -3 12 -2 9 4 -6 10 -25 14 -25 6z"/>
<path d="M995 3000 c3 -5 8 -10 11 -10 2 0 4 5 4 10 0 6 -5 10 -11 10 -5 0 -7
-4 -4 -10z"/>
<path d="M4910 3000 c0 -5 5 -10 11 -10 5 0 7 5 4 10 -3 6 -8 10 -11 10 -2 0
-4 -4 -4 -10z"/>
<path d="M270 2926 c0 -2 7 -6 15 -10 8 -3 15 -1 15 4 0 6 -7 10 -15 10 -8 0
-15 -2 -15 -4z"/>
<path d="M256 2878 c3 -5 10 -6 15 -3 13 9 11 12 -6 12 -8 0 -12 -4 -9 -9z"/>
<path d="M370 2879 c0 -5 5 -7 10 -4 6 3 10 8 10 11 0 2 -4 4 -10 4 -5 0 -10
-5 -10 -11z"/>
<path d="M314 2836 c1 -8 5 -18 8 -22 4 -3 5 1 4 10 -1 8 -5 18 -8 22 -4 3 -5
-1 -4 -10z"/>
<path d="M4836 2802 c-2 -4 4 -8 14 -8 10 0 16 4 14 8 -3 4 -9 8 -14 8 -5 0
-11 -4 -14 -8z"/>
<path d="M373 2765 c0 -8 4 -12 9 -9 5 3 6 10 3 15 -9 13 -12 11 -12 -6z"/>
<path d="M4790 2761 c0 -5 5 -13 10 -16 6 -3 10 -2 10 4 0 5 -4 13 -10 16 -5
3 -10 2 -10 -4z"/>
<path d="M400 2720 c-8 -5 -10 -10 -5 -10 6 0 17 5 25 10 8 5 11 10 5 10 -5 0
-17 -5 -25 -10z"/>
<path d="M4756 2678 c3 -5 10 -6 15 -3 13 9 11 12 -6 12 -8 0 -12 -4 -9 -9z"/>
<path d="M4709 2626 c-9 -18 -8 -19 3 -5 7 9 21 15 30 13 10 -1 20 1 22 5 3 4
-7 7 -20 7 -16 0 -29 -8 -35 -20z"/>
<path d="M4665 2610 c-3 -6 1 -7 9 -4 18 7 21 14 7 14 -6 0 -13 -4 -16 -10z"/>
<path d="M590 2566 c0 -2 7 -7 16 -10 8 -3 12 -2 9 4 -6 10 -25 14 -25 6z"/>
<path d="M4670 2498 c0 -4 4 -8 9 -8 6 0 12 4 15 8 3 5 -1 9 -9 9 -8 0 -15 -4
-15 -9z"/>
<path d="M4650 2491 c0 -6 4 -13 10 -16 6 -3 7 1 4 9 -7 18 -14 21 -14 7z"/>
<path d="M4678 2453 c7 -3 16 -2 19 1 4 3 -2 6 -13 5 -11 0 -14 -3 -6 -6z"/>
<path d="M4753 2435 c0 -8 4 -12 9 -9 5 3 6 10 3 15 -9 13 -12 11 -12 -6z"/>
<path d="M4716 2427 c3 -10 9 -15 12 -12 3 3 0 11 -7 18 -10 9 -11 8 -5 -6z"/>
<path d="M4678 2423 c7 -3 16 -2 19 1 4 3 -2 6 -13 5 -11 0 -14 -3 -6 -6z"/>
<path d="M4770 2400 c0 -5 5 -10 11 -10 5 0 7 5 4 10 -3 6 -8 10 -11 10 -2 0
-4 -4 -4 -10z"/>
<path d="M4786 2338 c3 -5 10 -6 15 -3 13 9 11 12 -6 12 -8 0 -12 -4 -9 -9z"/>
<path d="M4777 2318 c2 -5 10 -8 18 -8 8 0 16 3 18 8 3 4 -5 7 -18 7 -13 0
-21 -3 -18 -7z"/>
<path d="M4835 2300 c3 -5 8 -10 11 -10 2 0 4 5 4 10 0 6 -5 10 -11 10 -5 0
-7 -4 -4 -10z"/>
<path d="M4798 2293 c7 -3 16 -2 19 1 4 3 -2 6 -13 5 -11 0 -14 -3 -6 -6z"/>
<path d="M4780 2260 c0 -6 5 -10 11 -10 5 0 7 -5 3 -12 -4 -7 -3 -8 4 -4 16
10 15 23 -3 30 -8 3 -15 1 -15 -4z"/>
<path d="M4726 2245 c-11 -8 -15 -15 -9 -15 6 0 16 7 23 15 16 19 11 19 -14 0z"/>
<path d="M4826 2236 c6 -15 4 -17 -6 -11 -9 6 -11 4 -5 -4 5 -9 10 -10 18 -2
8 8 7 14 -2 24 -10 10 -11 8 -5 -7z"/>
<path d="M4790 2211 c0 -9 30 -24 36 -18 2 1 -6 8 -16 15 -11 7 -20 8 -20 3z"/>
<path d="M4080 2206 c0 -2 7 -7 16 -10 8 -3 12 -2 9 4 -6 10 -25 14 -25 6z"/>
<path d="M4830 2140 c0 -5 5 -10 10 -10 6 0 10 5 10 10 0 6 -4 10 -10 10 -5 0
-10 -4 -10 -10z"/>
<path d="M4886 2138 c3 -5 10 -6 15 -3 13 9 11 12 -6 12 -8 0 -12 -4 -9 -9z"/>
<path d="M4856 2122 c-3 -5 1 -9 9 -9 8 0 12 4 9 9 -3 4 -7 8 -9 8 -2 0 -6 -4
-9 -8z"/>
<path d="M4180 2080 c-12 -7 -10 -9 8 -7 12 0 22 5 22 9 0 11 -12 10 -30 -2z"/>
<path d="M307 2055 c-4 -8 -15 -12 -27 -10 -14 3 -18 0 -13 -8 4 -7 7 -21 6
-32 -2 -11 0 -14 3 -7 3 6 10 10 15 7 5 -4 6 1 3 10 -4 10 -2 15 7 13 8 -2 13
3 12 10 -2 6 2 12 7 12 6 0 10 5 10 10 0 15 -17 12 -23 -5z"/>
<path d="M4853 2057 c-4 -6 -1 -7 7 -2 9 6 12 4 8 -6 -4 -10 1 -15 13 -15 12
0 15 4 9 12 -6 6 -8 13 -5 16 3 2 -2 5 -10 5 -9 0 -19 -5 -22 -10z"/>
<path d="M241 2016 c-9 -10 -8 -15 2 -19 8 -3 13 3 13 14 0 23 0 23 -15 5z"/>
<path d="M4934 2022 c4 -3 14 -7 22 -8 9 -1 13 0 10 4 -4 3 -14 7 -22 8 -9 1
-13 0 -10 -4z"/>
<path d="M4895 2010 c-4 -6 -11 -8 -16 -5 -5 4 -17 1 -26 -5 -16 -10 -15 -10
4 -5 19 5 21 3 17 -20 -2 -14 0 -25 5 -25 5 0 8 8 6 18 -1 9 4 25 13 35 8 9
12 17 9 17 -3 0 -9 -5 -12 -10z"/>
<path d="M4834 1935 c-19 -15 -19 -15 0 -8 13 4 17 3 12 -5 -4 -7 -3 -12 2
-12 13 0 23 28 13 34 -4 3 -17 -1 -27 -9z"/>
<path d="M4215 1930 c-10 -16 7 -31 23 -21 10 6 10 10 -2 20 -10 9 -16 9 -21
1z"/>
<path d="M4939 1938 c-5 -19 -8 -50 -4 -46 7 7 15 48 9 48 -2 0 -4 -1 -5 -2z"/>
<path d="M190 1921 c0 -6 4 -13 10 -16 6 -3 7 1 4 9 -7 18 -14 21 -14 7z"/>
<path d="M220 1903 c0 -6 7 -18 15 -27 16 -16 20 -31 7 -22 -5 3 -9 -1 -9 -9
0 -8 3 -13 5 -10 3 3 11 0 18 -6 10 -8 12 -6 9 12 -3 12 1 30 7 38 7 9 8 13 4
9 -5 -4 -15 -3 -23 3 -7 6 -13 8 -13 3 0 -5 -5 -2 -10 6 -6 9 -10 10 -10 3z"/>
<path d="M816 1898 c3 -5 10 -6 15 -3 13 9 11 12 -6 12 -8 0 -12 -4 -9 -9z"/>
<path d="M4870 1903 c0 -5 5 -15 10 -23 7 -12 9 -10 7 8 -1 19 -17 33 -17 15z"/>
<path d="M4207 1853 c4 -9 -1 -21 -12 -29 -18 -13 -9 -20 18 -15 5 1 7 -4 4
-11 -2 -7 -13 -12 -23 -10 -18 3 -18 3 1 -12 17 -13 18 -18 8 -35 -20 -31 -16
-43 9 -35 19 6 21 5 11 -8 -7 -8 -10 -18 -6 -21 3 -4 1 -7 -5 -7 -6 0 -14 5
-17 10 -3 6 -11 10 -18 10 -6 0 -2 -6 8 -14 19 -14 33 -62 15 -51 -5 3 -10 1
-10 -4 0 -16 16 -13 30 4 10 12 10 15 -1 15 -7 0 -3 7 9 16 18 13 21 19 11 30
-9 11 -9 14 1 14 10 0 10 3 0 15 -10 12 -16 13 -26 4 -11 -9 -14 -9 -14 0 0 6
6 14 14 17 8 3 13 11 10 18 -3 7 2 19 11 26 20 16 19 36 -1 44 -9 3 -14 13
-11 20 3 8 0 17 -8 20 -10 3 -12 0 -8 -11z m18 -70 c-17 -16 -18 -16 -6 -1 14
19 6 42 -11 32 -7 -5 -8 -2 -3 5 6 10 11 9 23 -3 15 -15 15 -17 -3 -33z m10
-102 c3 -5 2 -12 -3 -15 -5 -3 -9 1 -9 9 0 17 3 19 12 6z"/>
<path d="M235 1810 c3 -5 8 -10 11 -10 2 0 4 5 4 10 0 6 -5 10 -11 10 -5 0 -7
-4 -4 -10z"/>
<path d="M4896 1793 c-6 -14 -5 -15 5 -6 7 7 10 15 7 18 -3 3 -9 -2 -12 -12z"/>
<path d="M4926 1778 c3 -5 10 -6 15 -3 13 9 11 12 -6 12 -8 0 -12 -4 -9 -9z"/>
<path d="M4181 1757 c-1 -11 -6 -15 -13 -11 -7 5 -8 3 -3 -5 10 -16 29 2 22
21 -4 8 -6 7 -6 -5z"/>
<path d="M4230 1760 c0 -5 5 -10 10 -10 6 0 10 5 10 10 0 6 -4 10 -10 10 -5 0
-10 -4 -10 -10z"/>
<path d="M4241 1741 c-8 -5 -9 -11 -3 -15 5 -3 15 1 22 9 14 16 3 20 -19 6z"/>
<path d="M4868 1743 c7 -3 16 -2 19 1 4 3 -2 6 -13 5 -11 0 -14 -3 -6 -6z"/>
<path d="M4909 1731 c5 -9 7 -24 5 -34 -1 -11 0 -16 4 -12 12 11 8 62 -5 62
-8 0 -9 -6 -4 -16z"/>
<path d="M4160 1660 c-12 -7 -10 -9 7 -7 12 0 19 5 17 9 -6 10 -6 10 -24 -2z"/>
<path d="M4876 1654 c-8 -20 -8 -24 2 -24 4 0 8 9 9 20 2 24 -3 26 -11 4z"/>
<path d="M4155 1630 c-3 -6 1 -7 9 -4 18 7 21 14 7 14 -6 0 -13 -4 -16 -10z"/>
<path d="M4764 1603 c17 -20 17 -23 2 -29 -20 -8 -21 -20 -2 -27 10 -4 13 -1
10 7 -3 7 2 16 10 19 9 4 13 13 10 22 -4 9 -9 13 -12 11 -3 -3 -12 0 -21 6
-10 8 -9 4 3 -9z"/>
<path d="M4171 1594 c0 -11 3 -14 6 -6 3 7 2 16 -1 19 -3 4 -6 -2 -5 -13z"/>
<path d="M4195 1590 c-8 -13 4 -32 16 -25 5 4 9 1 9 -4 0 -14 -23 -14 -37 0
-9 9 -11 7 -9 -7 2 -12 10 -18 20 -16 14 3 16 0 7 -17 -15 -26 -14 -29 7 -33
11 -2 13 -6 5 -11 -6 -4 -19 0 -27 9 -9 8 -16 11 -16 5 0 -14 31 -31 58 -31 4
0 0 -4 -8 -10 -8 -5 -11 -12 -7 -17 5 -4 12 -1 17 7 8 13 10 13 10 1 0 -8 3
-11 6 -8 4 4 1 13 -6 22 -10 12 -10 15 1 15 10 1 9 4 -3 14 -10 7 -18 16 -18
19 0 4 8 4 18 1 13 -5 14 -4 3 4 -9 7 -10 11 -2 17 9 5 9 10 1 20 -7 8 -9 19
-6 24 4 6 -2 15 -13 21 -13 7 -22 7 -26 0z m39 -49 c3 -4 -4 -17 -15 -27 -18
-16 -19 -16 -13 -1 3 9 10 17 16 17 5 0 6 5 3 10 -3 6 -4 10 -1 10 3 0 7 -4
10 -9z"/>
<path d="M4895 1559 c-4 -6 -4 -13 -1 -16 3 -4 6 -1 6 6 0 7 5 9 12 5 7 -4 8
-3 4 4 -9 15 -13 15 -21 1z"/>
<path d="M4150 1536 c0 -2 8 -10 18 -17 15 -13 16 -12 3 4 -13 16 -21 21 -21
13z"/>
<path d="M4763 1503 c4 -6 1 -13 -5 -16 -10 -3 -9 -9 3 -21 15 -16 16 -16 15
8 -1 14 -6 29 -10 33 -5 4 -6 3 -3 -4z"/>
<path d="M415 1480 c-3 -5 -1 -10 4 -10 6 0 11 5 11 10 0 6 -2 10 -4 10 -3 0
-8 -4 -11 -10z"/>
<path d="M4153 1472 c0 -12 5 -22 9 -22 11 0 10 12 -2 30 -7 12 -9 10 -7 -8z"/>
<path d="M4913 1483 c4 -3 1 -13 -6 -22 -11 -14 -10 -14 6 -2 20 15 22 31 5
31 -6 0 -8 -3 -5 -7z"/>
<path d="M4945 1440 c-3 -6 1 -7 9 -4 18 7 21 14 7 14 -6 0 -13 -4 -16 -10z"/>
<path d="M485 1410 c-16 -7 -17 -9 -3 -9 9 -1 20 4 23 9 7 11 7 11 -20 0z"/>
<path d="M4705 1390 c-4 -12 -11 -17 -18 -13 -7 4 -6 -1 2 -10 11 -14 17 -15
28 -5 11 9 12 13 3 16 -10 4 -10 6 0 12 8 5 9 10 2 14 -6 3 -13 -3 -17 -14z"/>
<path d="M4906 1402 c-3 -5 1 -9 9 -9 8 0 12 4 9 9 -3 4 -7 8 -9 8 -2 0 -6 -4
-9 -8z"/>
<path d="M4875 1389 c-4 -6 -5 -12 -2 -15 2 -3 7 2 10 11 7 17 1 20 -8 4z"/>
<path d="M4286 1353 c-6 -14 -5 -15 5 -6 7 7 10 15 7 18 -3 3 -9 -2 -12 -12z"/>
<path d="M4210 1341 c0 -7 -5 -9 -12 -5 -7 5 -8 3 -3 -5 5 -9 10 -10 18 -2 6
6 8 14 4 18 -4 3 -7 1 -7 -6z"/>
<path d="M4830 1340 c-12 -7 -10 -9 7 -7 12 0 19 5 17 9 -6 10 -6 10 -24 -2z"/>
<path d="M4356 1321 c-20 -22 -9 -35 16 -17 9 7 13 17 9 24 -5 9 -12 7 -25 -7z"/>
<path d="M4198 1303 c7 -3 16 -2 19 1 4 3 -2 6 -13 5 -11 0 -14 -3 -6 -6z"/>
<path d="M4784 1286 c-16 -12 -17 -17 -6 -28 11 -11 12 -10 6 7 l-7 20 24 -20
c17 -14 20 -15 10 -3 -7 9 -10 22 -6 28 9 14 2 13 -21 -4z"/>
<path d="M4407 1283 c-11 -10 13 -32 29 -26 7 3 17 -2 20 -11 3 -9 10 -13 15
-10 6 3 18 0 27 -8 15 -12 16 -11 3 5 -7 9 -19 17 -26 17 -6 0 -20 9 -30 20
-19 21 -28 24 -38 13z"/>
<path d="M4515 1270 c-3 -5 -1 -10 4 -10 6 0 11 5 11 10 0 6 -2 10 -4 10 -3 0
-8 -4 -11 -10z"/>
<path d="M4686 1261 c-3 -5 1 -11 9 -14 9 -4 12 -1 8 9 -6 16 -10 17 -17 5z"/>
<path d="M4110 1241 c0 -6 4 -13 10 -16 6 -3 7 1 4 9 -7 18 -14 21 -14 7z"/>
<path d="M4192 1245 c3 -3 16 -8 28 -10 12 -2 20 -1 16 2 -4 4 -16 8 -28 10
-12 2 -19 1 -16 -2z"/>
<path d="M4745 1240 c-3 -6 1 -7 9 -4 18 7 21 14 7 14 -6 0 -13 -4 -16 -10z"/>
<path d="M4712 1231 c-11 -6 -9 -9 6 -13 15 -4 19 -2 15 8 -6 16 -4 16 -21 5z"/>
<path d="M4672 1204 c-7 -8 -8 -14 -3 -14 10 0 25 19 20 25 -2 1 -10 -3 -17
-11z"/>
<path d="M4756 1207 c3 -10 9 -15 12 -12 3 3 0 11 -7 18 -10 9 -11 8 -5 -6z"/>
<path d="M4213 1190 c1 -21 10 -18 13 5 1 8 -2 15 -6 15 -5 0 -8 -9 -7 -20z"/>
<path d="M4244 1202 c4 -3 14 -7 22 -8 9 -1 13 0 10 4 -4 3 -14 7 -22 8 -9 1
-13 0 -10 -4z"/>
<path d="M4279 1173 c-13 -16 -12 -17 4 -4 9 7 17 15 17 17 0 8 -8 3 -21 -13z"/>
<path d="M4420 1169 c-10 -17 -9 -20 1 -14 9 6 11 3 6 -9 -4 -10 -3 -15 4 -11
5 4 7 15 4 26 -7 20 9 27 18 9 3 -6 4 -5 3 2 -4 21 -24 20 -36 -3z"/>
<path d="M4754 1173 c16 -20 36 -23 36 -6 0 4 -3 3 -7 0 -3 -4 -16 1 -27 10
-21 18 -21 18 -2 -4z"/>
<path d="M4620 1171 c0 -6 4 -13 10 -16 6 -3 7 1 4 9 -7 18 -14 21 -14 7z"/>
<path d="M4657 1157 c-3 -7 3 -13 14 -13 13 0 15 3 7 13 -6 7 -12 13 -13 13
-2 0 -5 -6 -8 -13z"/>
<path d="M4386 1143 c-6 -14 -5 -15 5 -6 7 7 10 15 7 18 -3 3 -9 -2 -12 -12z"/>
<path d="M4591 1132 c-8 -15 -6 -18 13 -18 12 0 23 6 23 13 0 10 -3 10 -16 0
-12 -10 -14 -9 -8 6 8 22 0 22 -12 -1z"/>
<path d="M4707 1139 c7 -7 15 -10 18 -7 3 3 -2 9 -12 12 -14 6 -15 5 -6 -5z"/>
<path d="M4753 1125 c0 -8 4 -12 9 -9 5 3 6 10 3 15 -9 13 -12 11 -12 -6z"/>
<path d="M4395 1120 c-3 -5 -1 -10 4 -10 6 0 11 5 11 10 0 6 -2 10 -4 10 -3 0
-8 -4 -11 -10z"/>
<path d="M4444 1122 c4 -3 14 -7 22 -8 9 -1 13 0 10 4 -4 3 -14 7 -22 8 -9 1
-13 0 -10 -4z"/>
<path d="M4549 1117 c6 -8 7 -18 3 -22 -4 -5 -2 -5 5 -1 14 8 6 36 -9 36 -7 0
-6 -5 1 -13z"/>
<path d="M4519 1093 c-13 -16 -12 -17 4 -4 9 7 17 15 17 17 0 8 -8 3 -21 -13z"/>
<path d="M4686 1102 c-3 -5 1 -9 9 -9 8 0 12 4 9 9 -3 4 -7 8 -9 8 -2 0 -6 -4
-9 -8z"/>
<path d="M4456 1087 c3 -10 9 -15 12 -12 3 3 0 11 -7 18 -10 9 -11 8 -5 -6z"/>
<path d="M4590 1086 c0 -2 7 -7 16 -10 8 -3 12 -2 9 4 -6 10 -25 14 -25 6z"/>
<path d="M4830 1046 c0 -2 7 -7 16 -10 8 -3 12 -2 9 4 -6 10 -25 14 -25 6z"/>
</g>
</svg>
